<svg xmlns="http://www.w3.org/2000/svg" viewBox="0 0 2752 768.25"><defs><style>.a,.c,.i{fill:#2b2b2b;}.a,.j{stroke:#2b2b2b;}.a,.i,.j,.k{stroke-miterlimit:10;}.a{stroke-width:0.25px;}.b,.j{fill:#f7f7f7;}.d{opacity:0.45;}.e,.k{fill:#92ff03;}.f{font-size:24.99px;}.f,.l{font-family:MyriadPro-Regular, Myriad Pro;}.g{letter-spacing:-0.04em;}.h{letter-spacing:-0.04em;}.i{stroke:#000;}.k{stroke:#92ff03;stroke-width:0.5px;}.l{font-size:21px;}</style></defs><title>growes_brain-logo_BRAIN - final</title><rect class="a" x="952" y="0.13" width="414" height="768"/><rect class="b" y="0.13" width="952" height="768"/><rect class="b" x="2338" y="0.13" width="414" height="768"/><rect class="a" x="1386" y="0.13" width="952" height="768"/><path class="c" d="M576.77,347.12c4.4,15.37,23.63,14.55,35.16,8.1A34.62,34.62,0,0,0,627.52,338c3-7.25,7.34-15.32,6.24-23.44-2.18-16.09-24.79-12.06-34.62-7.21-8,4-14.86,10-21.46,16-7.56,6.84-15,13.75-22.81,20.36-8.39,7.15-17.29,14.57-26.75,20.28-11.93,7.2-22.62-.86-28.83-11.34a2.94,2.94,0,0,0-4.55-.59c-3.45,3-11.7-1.9-14.78-3.68-4.54-2.62-9-6.17-11.63-10.76s-3.44-9.46-.67-14.18c3-5.16,9.61-6.84,15.07-7.94a2.8,2.8,0,0,0,2-2.68c-.31-8.57,2.24-24.87,14.7-21.43,3,.84,4.33-3.85,1.3-4.73-6.08-1.76-12.22.68-16.19,5.49-4.74,5.74-5.32,13.54-5.37,20.67l2-2.68c-7.71,1.3-15.49,4.43-20.56,10.66s-4.68,15-.09,21.34a46.55,46.55,0,0,0,18.81,15c6.11,2.69,14.4,4.75,19.42-1l-4.55-.59c7.71,10,18.31,20.31,32,14.5,7-3,13.07-8.46,19-13,6.29-4.78,12.35-9.82,18.26-15,6.24-5.51,12.49-11,18.77-16.5s12.51-10.93,20-14.37c6.81-3.11,17.3-5.77,24.07-1,7.45,5.23.42,20.29-4.39,25.57-5.6,6.13-11.78,11.89-19.93,14.3-6.47,1.9-16.23,1.4-20-5.16-1.65-2.81-6.22-1-5.31,2.24Z" transform="translate(0 0.13)"/><path class="c" d="M461,273.17c14.27,19.58,44.14,26.88,61.84,7.36l-5.43.7c9.05,4,22.43.53,30.41-4.73s13.46-14,13.46-23.8l-8.34,1.13c1.33,5,5.85,5.71,10.33,6.22,6,.67,12.13,1.06,17.92-.85,8.65-2.87,16.07-11.45,10.9-20.44-.75-1.31-3.29-1.25-3.53.46-.69,5-4.71,10.27-9.37,12.06a24.3,24.3,0,0,1-9.62,1.2c-.61,0-8.31-.25-8.44-.91-1-4.81-8.26-3.54-8.34,1.13a19.88,19.88,0,0,1-9.39,16.24,29.3,29.3,0,0,1-9.61,3.94c-3.08.72-8.82,2-11.86.61a4.64,4.64,0,0,0-5.43.7c-6.88,7.49-15.58,10.67-25.61,10.82-10.74.15-20.13-6.22-26.8-14.22-1.42-1.7-4.41.57-3.09,2.38Z" transform="translate(0 0.13)"/><path class="c" d="M462.23,326.45c-11.21,16.4-34.49,25.45-50.86,10.19-3-2.8-5.38-5.64-9.23-7.3-4.35-1.86-8.45-3.36-12.4-6a39.85,39.85,0,0,1-15.92-22.14A39.24,39.24,0,0,1,377,273.08a38.74,38.74,0,0,1,8.08-10.76c4-3.73,9-6.27,12.77-10.35,6.37-6.94,9.38-16.27,14.84-23.87a88.73,88.73,0,0,1,22-21.08c18-12.35,39.3-18.64,60.54-22.79,5.82-1.13,11.76-2.17,17.72-1.82,5.75.35,11,2.35,16.23,4.53,10.13,4.18,19.25,5.52,30.17,5.51a87.83,87.83,0,0,1,32.68,6.34c9.25,3.54,19.62,7,27.07,13.79s10.89,17.53,17.66,25.28c6.43,7.35,16.77,16.39,14.15,27.38-.6,2.53-1.91,4.79-2.46,7.34s-.4,5.27-.62,7.93c-.52,6.54-5.76,10.91-9.57,15.83-6.63,8.58-12.27,18-15.46,28.45-5.71,18.68-2.78,41,13.64,53.27,2.51,1.88,5.23-2.07,3.24-4.19-15.79-16.89-14-40.81-3.54-59.91a106.35,106.35,0,0,1,9.8-14.72c3-3.79,6.65-7.38,8.36-12,2-5.31.74-11,2.67-16.38,1.71-4.76,2.36-9.14,1.22-14.15-2.47-10.79-11.24-17.82-18-26-7-8.45-10.19-18.91-19.24-25.67-8.45-6.31-19-9.94-28.85-13.53a95.21,95.21,0,0,0-34.58-5.69c-5.67,0-11.32,0-16.83-1.5-6.19-1.72-11.86-4.88-18-6.7-11.4-3.36-23.2-.88-34.5,1.66-22,4.94-44,12.59-62,26.64a90.9,90.9,0,0,0-20.79,22.51c-2.77,4.33-4.88,9-7.51,13.42-3.35,5.62-7.63,9-12.8,12.79-15.4,11.42-23.07,31.78-17.31,50.37A47.66,47.66,0,0,0,386,329.76c4.76,3.37,10.27,4.19,15.23,6.93s8.26,7.38,13.26,10c18.72,9.79,44.84,2.63,50.92-18.91.55-1.95-2.08-2.89-3.15-1.33Z" transform="translate(0 0.13)"/><path class="c" d="M392.42,252.1c7.17-2.54,14.57-4.74,22.16-5.52a45.4,45.4,0,0,1,11,.13c3.52.48,6.86,1.73,10.39,2.09,2.11.21,2.26-2.55,1-3.54-6-4.6-16.08-4.19-23.2-3.23-7.91,1.06-15.26,4-22.49,7.24-1.59.72-.46,3.42,1.19,2.83Z" transform="translate(0 0.13)"/><path class="c" d="M461.11,231.3a27.12,27.12,0,0,0-17.32,6.44c-2.88,2.48-4.46,5.35-6.56,8.41-2.33,3.37-5.81,3.85-9.45,5.41-10.85,4.65-20.92,17.83-11.15,28.72l1.37-5.17c-8.76,2.06-11.52,12.48-12.49,20.28C404.2,305.84,409.69,312,418,317.27c3.34,2.11,6.4-3.18,3.09-5.28-6.48-4.11-10.66-8.39-9.45-16.58.72-5,2.29-13,8-14.34,2.35-.54,2.89-3.54,1.36-5.17-4.17-4.45-2-11.19,1.94-15,4.16-4,9.46-5.12,14.51-7.47,4.11-1.91,4.61-7.2,7.42-10.52a25.24,25.24,0,0,1,16.24-8.74c1.79-.21,1.9-2.92,0-2.88Z" transform="translate(0 0.13)"/><path class="c" d="M521.09,279.29c6.68,4.21,17.36,8.09,18.43,17a17,17,0,0,1-2.77,11.18c-2,3.28-5.3,5.66-7,9.12a2.36,2.36,0,0,0,2.62,3.41c10-1.48,15.58-15.52,14-24.37-2.19-12-14.1-15.43-24.06-19.2-1.73-.66-2.68,2-1.22,2.89Z" transform="translate(0 0.13)"/><path class="c" d="M484.34,223.4c7.15-8.17,19.34-11,29.14-6.07a2.29,2.29,0,0,0,2.32,0,26.75,26.75,0,0,1,15.22-5c5.55,0,9.63,2.24,14.7,3.9,2.24.73,4-2.36,2.3-3.94-9-8.35-25.53-5.52-34.54,1.07h2.32A27,27,0,0,0,482,221.61c-1,1.35,1.21,3,2.32,1.79Z" transform="translate(0 0.13)"/><path class="c" d="M550,189.3c-7.61-3.42-18.53-1.83-26,1.44-7,3-15.12,12.57-13.32,20.63a2.45,2.45,0,0,0,4.43.58c3.47-6.45,5-13.49,12.63-16.48,6-2.38,14.38-4.45,20.58-2.12,2.32.87,4-3,1.7-4Z" transform="translate(0 0.13)"/><path class="c" d="M604.07,372.78c-16.13-2.54-30.51-11-46.49-14.08-12.49-2.36-28.33-2.57-37.62,7.51a.88.88,0,0,0,.85,1.45,79.62,79.62,0,0,1,40.54-1.53c14.19,3,27.92,7.49,42.42,8.88,1.26.12,1.56-2,.3-2.23Z" transform="translate(0 0.13)"/><path class="c" d="M608.61,374.7c-16.5-6.07-35.25-12.45-53.07-11.68a1.67,1.67,0,0,0-.44,3.27c8.62,2.39,17.65,3.37,26.41,5.16s17.6,3.95,26.19,6.55c2.14.65,2.95-2.55.91-3.3Z" transform="translate(0 0.13)"/><path class="c" d="M565.12,364.29c-8.78-1.2-17.55-2.5-26.35-3.58-6.09-.75-12.12-1-16.13,4.3-.49.64.31,1.38,1,1.24,3.13-.66,6.28-1.51,9.49-1.5a89.56,89.56,0,0,1,9.52,1l22,2.42c2.2.25,2.74-3.58.53-3.88Z" transform="translate(0 0.13)"/><path class="c" d="M531.54,316.63c-5.18,4.51-.86,11.1,4.3,13.08,5.52,2.13,14.69,1.7,17.53-4.42a2,2,0,0,0-2.22-2.9c-2.8.6-5.32,2.11-8.19,2.36-1.32.11-10.25-1.28-7.24-3.94s-1.33-6.66-4.18-4.18Z" transform="translate(0 0.13)"/><path class="c" d="M620,252.76a24.18,24.18,0,0,0-13.1,18.14c-.92,5.88-.14,20,7.45,21.47a1.22,1.22,0,0,0,1.47-.84c.55-2.29-.2-3.87-1.08-6A29.61,29.61,0,0,1,612,273.67a19.32,19.32,0,0,1,10.28-17c2.62-1.38.31-5.22-2.31-3.94Z" transform="translate(0 0.13)"/><path class="c" d="M609.17,271.67a28.54,28.54,0,0,0-15.25,4.93c-3.69,2.59-8.22,7-8.15,11.87a1.66,1.66,0,0,0,2.48,1.43c3.11-2.21,5.06-5.76,8-8.19a24.8,24.8,0,0,1,12.88-5.54c2.8-.33,3-4.64,0-4.5Z" transform="translate(0 0.13)"/><path class="c" d="M598.18,375.67c11.79,2.12,21.48,8.38,29.19,17.4A347.63,347.63,0,0,1,650,423.46c8.33,12.27,10.77,25,4,38.6-2.61,5.26-5.73,10.76-9.71,15.1-5.17,5.65-12.21,7.69-19.66,8a90.08,90.08,0,0,1-37.74-6.89c-11.86-5-22.25-12.68-33.86-18.12-10.13-4.74-21.06-7.63-32.25-5.51-10,1.9-19.4,7.33-27.41,13.45-16.13,12.29-32.72,32.39-33.93,53.45-.07,1.34,1.75,1.37,2.18.29,4.56-11.48,9.55-21.9,17.25-31.65a96,96,0,0,1,21.3-20.08c11.4-7.69,23.71-12.82,37.64-9.86,13.25,2.82,24.53,10.5,36.33,16.72a101.41,101.41,0,0,0,34.45,11.24c11,1.41,25.06,2.28,34.52-4.56,4.29-3.1,7.36-7.58,10.08-12,3.07-5,6.07-10.31,7.74-16,3.49-12-.22-23.38-6.88-33.46-7.52-11.4-15.72-23.12-24.77-33.36-7.65-8.66-18.73-15.95-30.73-15.46-1.3,0-1.73,2.13-.32,2.38Z" transform="translate(0 0.13)"/><path class="c" d="M461.59,521.8c3.25-10.66,9.18-24.08,22.24-23.77,17.94.42,27.56,18.06,29,33.92a52.4,52.4,0,0,1-4.38,27.27c-3.65,7.69-9.22,14.25-13.41,21.63-3.34,5.89-8.5,13.86-7.39,21,1.15,7.39,6.3,14.84,10.76,20.61.64.82,2.05-.26,1.45-1.12-4.29-6.12-10.69-15.13-9.56-22.9.63-4.33,3.65-8.93,5.88-12.69a108,108,0,0,1,8.34-11.93c4.27-5.39,8.55-10.57,11-17.08a52.67,52.67,0,0,0,3-21.45c-.71-13.24-6.16-26.72-17.06-34.8-6.8-5-16.28-8-24.59-5.18C466,499,461.66,510.93,459.41,521.2a1.13,1.13,0,0,0,2.18.6Z" transform="translate(0 0.13)"/><path class="c" d="M509.32,563.17c-3.45,7.31-5.83,14.8,1.06,20.92,7.55,6.71,14.33,11.89,24.29,14.35,9.11,2.25,21.78,4.74,27.47,13,6.43,9.34,4.76,22.38,1.85,32.53a1,1,0,0,0,1.86.79,38.49,38.49,0,0,0,6.53-26.54c-1.17-9.31-6.67-15.83-15-19.81-9.23-4.4-19.23-5.08-28.76-8.34a51.13,51.13,0,0,1-14.94-8.16c-5.85-4.76-4.81-11.66-2.92-18.16.24-.82-1-1.41-1.41-.6Z" transform="translate(0 0.13)"/><path class="c" d="M527.21,594.31c7.66,6,10.42,15.73,8.07,25.13-2.2,8.79-8.88,15.82-12.38,24.07-.36.83.66,1.9,1.38,1.07,6.45-7.59,13.49-17.94,14.73-28A24.58,24.58,0,0,0,528.19,593c-.75-.5-1.71.7-1,1.27Z" transform="translate(0 0.13)"/><path class="c" d="M600.47,484.73c-5.64-2.19-10.07-10.23-13.86-14.73a112.88,112.88,0,0,1-10.13-13.52c-5.76-9.38-10.56-20.59-9-31.84.73-5.18,3-10.11,7.62-12.86,4.9-2.9,11.53-2.59,17-1.93A54.66,54.66,0,0,1,621.38,423c.8.68,2.36.06,1.94-1.13-4.54-12.67-19-17.37-31.2-19.14-13.5-2-28.47.52-33.29,15.12-4.41,13.34,2.42,28.69,10.19,39.37a134.21,134.21,0,0,0,14.13,16.27c4.5,4.44,10.64,11.18,16.83,13.05,1.15.34,1.56-1.35.49-1.77Z" transform="translate(0 0.13)"/><g class="d"><path class="c" d="M477.89,519.54" transform="translate(0 0.13)"/></g><path class="c" d="M662,447.89c-8,6.95-10.59,6.12-18,6.19a33.36,33.36,0,0,1-7.35-.66c-6-1.29-11-4.85-13.21-9.32a23.44,23.44,0,0,0,4.87,13c1.26,1.67,2.59,3.73,5,4.24C650,464.88,657,452.52,662,447.89" transform="translate(0 0.13)"/><path class="c" d="M661.63,447.51c-5.53,4.57-9.94,5.86-17,5.72-8-.16-16.18-2.17-20.34-9.65a1,1,0,0,0-1.93.52,25.7,25.7,0,0,0,6.87,15.77c3.32,3.39,8.89,3.47,13.32,2.78,9.26-1.44,13.81-8.14,19.69-14.48a.4.4,0,0,0-.56-.56c-4.43,3.79-8,8.49-13.31,11.19A20.34,20.34,0,0,1,635,460.72c-6.81-1.67-10-10.26-10.47-16.62l-1.94.53c4.15,7.47,12.37,10.27,20.53,10.31s13-1.27,19.3-6.68c.52-.45-.23-1.17-.74-.75Z" transform="translate(0 0.13)"/><path class="c" d="M477.37,512.31" transform="translate(0 0.13)"/><path class="c" d="M455.13,561.66a27.88,27.88,0,0,1,1-18.44,30.87,30.87,0,0,1,12-14.16c3.54-2.25,7.71-4,9.83-7.6a16.24,16.24,0,0,0,1.66-4.65,57.8,57.8,0,0,0,1.43-10l3.47,10.48a31.9,31.9,0,0,1,1.82,7C487,532,486,536,484,539c-1.08,1.63-1,4-3,7-5.29,7.93-13,12-25.84,16" transform="translate(0 0.13)"/><path class="c" d="M455.19,561.64c-3.86-15.15,4.1-27,16.6-34.6,3.28-2,5.94-4.07,7.28-7.79a38.12,38.12,0,0,0,1.62-7.41c0,.29.44-3.38.37-3.39.69.15,1.33,3.16,1.48,3.6,2,6.2,4.15,12.15,3.69,18.81-.31,4.4-2.45,8.3-4.1,12.32-4.41,10.78-16.81,15.38-27,18.69a.13.13,0,0,0,.07.26c10.34-3.2,23-7.89,27.44-18.83,1.8-4.43,3.88-8.28,4.06-13.17.31-8.25-3-15.71-5.53-23.43a.2.2,0,0,0-.38.06c-.59,7.74-1.47,15.18-8.56,19.61-4.18,2.62-8.11,4.93-11.35,8.75a28.74,28.74,0,0,0-5.8,26.56.06.06,0,1,0,.12,0Z" transform="translate(0 0.13)"/><path class="c" d="M445.11,499.68a22.16,22.16,0,0,0,1.94,8.85c2.57,5.24,5.21,10.9,4.29,16.65-.89,5.56-5,10.19-5.92,15.74-.6,3.5.1,7.09.91,10.56.94,4,2.21,8.35,5.48,10.9-6.69-.28-12.84-3.79-18-8.06a29.5,29.5,0,0,1-7.88-9.18c-3-6-2.65-13.16-.79-19.59a45,45,0,0,1,20-25.87" transform="translate(0 0.13)"/><path class="c" d="M444.87,499.68c.16,5.86,2.78,10,4.73,15.41,1.46,4,2.06,8,.87,12.22-.91,3.18-2.72,6-4,9.09-1.8,4.48-1.76,8.73-.84,13.41a39.23,39.23,0,0,0,2,7.15c.17.41,3,4.61,2.92,4.73-.52,1.45-9.29-2.72-9.65-2.91a43.72,43.72,0,0,1-9.16-6.72,23.5,23.5,0,0,1-7.69-19.91c1.21-13.47,9.92-25.28,21.13-32.32a.18.18,0,0,0-.18-.31c-12.09,7.61-21.73,21.23-21.53,36,.19,14.33,14.68,26.1,28.32,27.18a.31.31,0,0,0,.22-.53c-4.48-4-6.49-11.84-6.57-17.72s3.2-10.25,5.17-15.5c4-10.73-4.68-18.89-5.27-29.26,0-.32-.5-.32-.49,0Z" transform="translate(0 0.13)"/><path class="b" d="M1916.84,326.38c4,16.57,24.66,16,36.81,9.08,7.4-4.2,13.06-10.19,15.82-18.2,2.63-7.66,7-15.38,5.94-23.79-2.22-16.76-25.29-13-35.68-7.82-8.1,4-15,10.13-21.6,16.16-7.54,6.86-15,13.79-22.78,20.4-8.34,7.1-17.2,14.48-26.61,20.15-11.45,6.9-21.83-.95-27.62-11.18-1.31-2.32-4.21-2.34-6.07-.78-2.76,2.32-11-2.76-13.41-4.17-4.32-2.53-8.57-5.9-11-10.34-2.27-4.1-3.22-8.43-1-12.75,2.68-5.11,9.08-6.64,14.31-7.72a3.75,3.75,0,0,0,2.73-3.58c-.35-8,1.72-23.88,13.55-20.64,4.07,1.11,5.78-5.13,1.74-6.31-6.35-1.86-12.83.67-17,5.68-4.92,5.89-5.58,13.9-5.69,21.27l2.72-3.57c-7.83,1.27-15.85,4.54-21.22,10.64-5.76,6.54-5.47,16.2-.47,23a48.79,48.79,0,0,0,19.42,15.42c6.55,2.88,15.54,4.8,20.78-1.47h-5.46c8.32,10.35,19.29,19.95,33.29,13.57,6.93-3.16,13.07-8.67,19.07-13.26,6.33-4.83,12.41-9.93,18.37-15.21q9.33-8.28,18.77-16.43c6.17-5.33,12.48-10.74,20-14,6.46-2.83,17.15-5.32,23.16-.12s-.81,19.16-5.42,23.63c-5.77,5.61-11.63,11.29-19.59,13.64-5.72,1.69-15.17,1.45-18.83-4.25a3.89,3.89,0,0,0-7.07,3Z" transform="translate(0 0.13)"/><path class="b" d="M1802,252.17c14.27,19.58,44.14,26.88,61.84,7.36l-5.43.7c9,4,22.43.53,30.41-4.73s13.46-14,13.46-23.8l-8.34,1.13c1.33,5,5.85,5.71,10.33,6.22,6,.67,12.13,1.06,17.92-.85,8.65-2.87,16.07-11.45,10.9-20.44-.75-1.31-3.29-1.25-3.53.46-.69,5-4.71,10.27-9.37,12.06a24.3,24.3,0,0,1-9.62,1.2c-.61,0-8.31-.25-8.44-.91-1-4.81-8.26-3.54-8.34,1.13a19.88,19.88,0,0,1-9.39,16.24,29.3,29.3,0,0,1-9.61,3.94c-3.08.72-8.82,2-11.86.61a4.64,4.64,0,0,0-5.43.7c-6.88,7.49-15.58,10.67-25.61,10.82-10.74.15-20.13-6.22-26.8-14.22-1.42-1.7-4.41.57-3.09,2.38Z" transform="translate(0 0.13)"/><path class="b" d="M1803.23,305.45c-11.21,16.4-34.49,25.45-50.86,10.19-3-2.8-5.38-5.64-9.23-7.3-4.35-1.86-8.45-3.36-12.4-6a39.85,39.85,0,0,1-15.92-22.14,39.24,39.24,0,0,1,3.19-28.08,38.74,38.74,0,0,1,8.08-10.76c4-3.73,9-6.27,12.77-10.35,6.37-6.94,9.38-16.27,14.84-23.87a88.73,88.73,0,0,1,22-21.08c18-12.35,39.3-18.64,60.54-22.79,5.82-1.13,11.76-2.17,17.72-1.82,5.75.35,11,2.35,16.23,4.53,10.13,4.18,19.25,5.52,30.17,5.51a87.83,87.83,0,0,1,32.68,6.34c9.25,3.54,19.62,7,27.07,13.79s10.89,17.53,17.66,25.28c6.43,7.35,16.77,16.39,14.15,27.38-.6,2.53-1.91,4.79-2.46,7.34s-.4,5.27-.62,7.93c-.52,6.54-5.76,10.91-9.57,15.83-6.63,8.58-12.27,18-15.46,28.45-5.71,18.68-2.78,41,13.64,53.27,2.51,1.88,5.23-2.07,3.24-4.19-15.79-16.89-14-40.81-3.54-59.91a106.35,106.35,0,0,1,9.8-14.72c3-3.79,6.65-7.38,8.36-12,2-5.31.74-11,2.67-16.38,1.71-4.76,2.36-9.14,1.22-14.15-2.47-10.79-11.24-17.82-18-25.95-7-8.45-10.19-18.91-19.24-25.67-8.45-6.31-19-9.94-28.85-13.53a95.21,95.21,0,0,0-34.58-5.69c-5.67,0-11.32,0-16.83-1.5-6.19-1.72-11.86-4.88-18-6.7-11.4-3.36-23.2-.88-34.5,1.66-22,4.94-44,12.59-62,26.64a90.9,90.9,0,0,0-20.79,22.51c-2.77,4.33-4.88,9-7.51,13.42-3.35,5.62-7.63,9-12.8,12.79-15.4,11.42-23.07,31.78-17.31,50.37A47.66,47.66,0,0,0,1727,308.76c4.76,3.37,10.27,4.19,15.23,6.93s8.26,7.38,13.26,10c18.72,9.79,44.84,2.63,50.92-18.91.55-1.95-2.08-2.89-3.15-1.33Z" transform="translate(0 0.13)"/><path class="b" d="M1733.42,231.1c7.17-2.54,14.57-4.74,22.16-5.52a45.4,45.4,0,0,1,11,.13c3.52.48,6.86,1.73,10.39,2.09,2.11.21,2.26-2.55,1-3.54-6-4.6-16.08-4.19-23.2-3.23-7.91,1.06-15.26,4-22.49,7.24-1.59.72-.46,3.42,1.19,2.83Z" transform="translate(0 0.13)"/><path class="b" d="M1802.11,210.3a27.12,27.12,0,0,0-17.32,6.44c-2.88,2.48-4.46,5.35-6.56,8.41-2.33,3.37-5.81,3.85-9.45,5.41-10.85,4.65-20.92,17.83-11.15,28.72l1.37-5.17c-8.76,2.06-11.52,12.48-12.49,20.28-1.31,10.45,4.18,16.62,12.52,21.88,3.34,2.11,6.4-3.18,3.09-5.28-6.48-4.11-10.66-8.39-9.45-16.58.72-5,2.29-13,8-14.34,2.35-.54,2.89-3.54,1.36-5.17-4.17-4.45-2-11.19,1.94-15,4.16-4,9.46-5.12,14.51-7.47,4.11-1.91,4.61-7.2,7.42-10.52a25.24,25.24,0,0,1,16.24-8.74c1.79-.21,1.9-2.92,0-2.88Z" transform="translate(0 0.13)"/><path class="b" d="M1862.09,258.29c6.68,4.21,17.36,8.09,18.43,17a17,17,0,0,1-2.77,11.18c-2,3.28-5.3,5.66-7,9.12a2.36,2.36,0,0,0,2.62,3.41c10-1.48,15.58-15.52,14-24.37-2.19-12-14.1-15.43-24.06-19.2-1.73-.66-2.68,2-1.22,2.89Z" transform="translate(0 0.13)"/><path class="b" d="M1825.34,202.4c7.15-8.17,19.34-11,29.14-6.07a2.29,2.29,0,0,0,2.32,0,26.75,26.75,0,0,1,15.22-5c5.55,0,9.63,2.24,14.7,3.9,2.24.73,4-2.36,2.3-3.94-9-8.35-25.53-5.52-34.54,1.07h2.32a27,27,0,0,0-33.78,8.25c-1,1.35,1.21,3,2.32,1.79Z" transform="translate(0 0.13)"/><path class="b" d="M1891,168.3c-7.61-3.42-18.53-1.83-26,1.44-7,3-15.12,12.57-13.32,20.63a2.45,2.45,0,0,0,4.43.58c3.47-6.45,5-13.49,12.63-16.48,6-2.38,14.38-4.45,20.58-2.12,2.32.87,4-3,1.7-4Z" transform="translate(0 0.13)"/><path class="b" d="M1945.17,351.42c-16.37-2.75-30.8-11.95-47.09-14.92-12.54-2.29-29-2.34-37.5,8.74-.68.88.43,1.87,1.31,1.7,6.54-1.28,13.07-2.88,19.78-3a94.74,94.74,0,0,1,20.4,2.25c14.28,2.84,28.14,7,42.7,8.23,1.68.14,2.08-2.69.4-3Z" transform="translate(0 0.13)"/><path class="b" d="M1949.76,353.15a223.63,223.63,0,0,0-26.63-8.42c-8.57-2.08-17.74-4.11-26.59-3.26a2.23,2.23,0,0,0-.59,4.35c8.46,2.83,17.62,3.69,26.35,5.41s17.64,3.81,26.25,6.32c2.87.84,3.91-3.38,1.21-4.4Z" transform="translate(0 0.13)"/><path class="b" d="M1906.3,342.65c-8.84-1.24-17.67-2.62-26.53-3.71-6-.74-13-1.08-16.38,4.93a1.14,1.14,0,0,0,1,1.69c2.73-.22,5.42-.87,8.14-1.05,3.36-.22,6.81.54,10.14.89,7.65.83,15.3,1.62,22.95,2.43,2.93.31,3.65-4.76.71-5.18Z" transform="translate(0 0.13)"/><path class="b" d="M1872.54,295.63c-5.18,4.51-.86,11.1,4.3,13.08,5.52,2.13,14.69,1.7,17.53-4.42a2,2,0,0,0-2.22-2.9c-2.8.6-5.32,2.11-8.19,2.36-1.32.11-10.25-1.28-7.24-3.94,2.86-2.53-1.33-6.66-4.18-4.18Z" transform="translate(0 0.13)"/><path class="b" d="M1961,231.76a24.18,24.18,0,0,0-13.1,18.14c-.92,5.88-.14,20,7.45,21.47a1.22,1.22,0,0,0,1.47-.84c.55-2.29-.2-3.87-1.08-6a29.61,29.61,0,0,1-2.71-11.85,19.32,19.32,0,0,1,10.28-17c2.62-1.38.31-5.22-2.31-3.94Z" transform="translate(0 0.13)"/><path class="b" d="M1950.17,250.67a28.54,28.54,0,0,0-15.25,4.93c-3.69,2.59-8.22,7-8.15,11.87a1.66,1.66,0,0,0,2.48,1.43c3.11-2.21,5.06-5.76,8-8.19a24.8,24.8,0,0,1,12.88-5.54c2.8-.33,2.95-4.64,0-4.5Z" transform="translate(0 0.13)"/><path class="b" d="M1939.07,355.06a51.53,51.53,0,0,1,28.79,17.51,343.78,343.78,0,0,1,22.5,30.23c8.2,12.07,10.69,24.5,4,37.93-2.59,5.21-5.67,10.66-9.61,15-5,5.51-11.91,7.56-19.19,7.81a89.15,89.15,0,0,1-37.47-6.92c-11.81-5-22.16-12.71-33.71-18.18-10.35-4.9-21.47-7.84-32.91-5.67-10.09,1.9-19.57,7.35-27.65,13.51a104,104,0,0,0-20.9,21.51c-6.66,9.17-12.89,21.2-12.92,32.75,0,1.38,2.12,2.12,2.75.75,4.89-10.59,9.35-20.47,16.44-29.83a94.73,94.73,0,0,1,21-20.6c10.92-7.6,23-13.46,36.61-11.1s25.12,10.07,37.08,16.4a103.69,103.69,0,0,0,35.65,11.7c11.07,1.39,25.29,2.21,34.86-4.65,3.94-2.82,6.87-6.81,9.44-10.86,3.46-5.46,6.85-11.32,8.68-17.56,3.45-11.81.06-23.23-6.45-33.25-7.6-11.73-16.08-23.76-25.33-34.25-7.69-8.71-19.12-16.3-31.24-15.37-1.71.13-2.32,2.77-.43,3.18Z" transform="translate(0 0.13)"/><path class="b" d="M1803,500.9c3.29-10.32,9.14-23.58,21.87-23.24,17.63.47,26.73,17.76,28.12,33.29a52.75,52.75,0,0,1-4.26,26.81c-3.57,7.73-9,14.37-13.13,21.79-3.36,6.06-8.47,14.14-7.28,21.4,1.22,7.46,6.39,14.92,10.94,20.72.86,1.09,2.73-.35,1.93-1.49-4.16-6-10.57-15.06-9.39-22.69.66-4.25,3.71-8.78,5.93-12.47a103.44,103.44,0,0,1,8.37-11.71c4.44-5.47,8.87-10.66,11.4-17.33a52.53,52.53,0,0,0,3.06-21.7c-.77-13.48-6.51-27.21-17.64-35.38-7-5.12-16.62-8.1-25.09-5.19-11.15,3.84-15.58,15.84-17.75,26.39a1.51,1.51,0,0,0,2.92.8Z" transform="translate(0 0.13)"/><path class="b" d="M1850.32,542.17c-3.45,7.31-5.83,14.8,1.06,20.92,7.55,6.71,14.33,11.89,24.29,14.35,9.11,2.25,21.78,4.74,27.47,13,6.43,9.34,4.76,22.38,1.85,32.53a1,1,0,0,0,1.86.79,38.49,38.49,0,0,0,6.53-26.54c-1.17-9.31-6.67-15.83-15-19.81-9.23-4.4-19.23-5.08-28.76-8.34a51.13,51.13,0,0,1-14.94-8.16c-5.85-4.76-4.81-11.66-2.92-18.16.24-.82-1-1.41-1.41-.6Z" transform="translate(0 0.13)"/><path class="b" d="M1868.21,573.31c7.66,6,10.42,15.73,8.07,25.13-2.2,8.79-8.88,15.82-12.38,24.07-.36.83.66,1.9,1.38,1.07,6.45-7.59,13.49-17.94,14.73-28A24.58,24.58,0,0,0,1869.19,572c-.75-.5-1.71.7-1,1.27Z" transform="translate(0 0.13)"/><path class="b" d="M1941.47,463.73c-5.64-2.19-10.07-10.23-13.86-14.73a112.88,112.88,0,0,1-10.13-13.52c-5.76-9.38-10.56-20.59-9-31.84.73-5.18,3-10.11,7.62-12.86,4.9-2.9,11.53-2.59,17-1.93A54.66,54.66,0,0,1,1962.38,402c.8.68,2.36.06,1.94-1.13-4.54-12.67-19-17.37-31.2-19.14-13.5-2-28.47.52-33.29,15.12-4.41,13.34,2.42,28.69,10.19,39.37a134.21,134.21,0,0,0,14.13,16.27c4.5,4.44,10.64,11.18,16.83,13.05,1.15.34,1.56-1.35.49-1.77Z" transform="translate(0 0.13)"/><g class="d"><path class="b" d="M1818.89,500.9c3,0,3-4.71,0-4.71s-3,4.71,0,4.71Z" transform="translate(0 0.13)"/></g><path class="b" d="M2003,426.89c-8,6.95-10.59,6.12-18,6.19a33.36,33.36,0,0,1-7.35-.66c-6-1.29-11-4.85-13.21-9.32a23.44,23.44,0,0,0,4.87,13c1.26,1.67,2.59,3.73,5,4.24,16.68,3.49,23.68-8.87,28.68-13.5" transform="translate(0 0.13)"/><path class="b" d="M2002.85,426.74c-5.63,4.71-10,6.07-17.18,6-8.19-.09-16.61-2.17-20.87-9.85a.42.42,0,0,0-.78.21,25.17,25.17,0,0,0,6.64,15.38c3.16,3.25,8.56,3.27,12.78,2.63,9.07-1.39,13.68-8.08,19.67-14.11.15-.15-.07-.36-.22-.23-4.35,4-7.82,8.77-13.19,11.53-4.27,2.18-10.63,3.41-15.28,1.73-3.24-1.17-5.41-4.56-7-7.49a29.32,29.32,0,0,1-1.94-5c-.28-.9-1.62-3.35-.48-2.59s2,2.52,3.19,3.47a20.19,20.19,0,0,0,4.28,2.67c4,1.87,8.16,2.31,12.48,2.34,7.66.06,12.23-1.34,18.15-6.38.21-.18-.09-.48-.3-.3Z" transform="translate(0 0.13)"/><path class="b" d="M1796.13,540.66a27.88,27.88,0,0,1,1-18.44,30.87,30.87,0,0,1,12-14.16c3.54-2.25,7.71-4,9.83-7.6a16.24,16.24,0,0,0,1.66-4.65,57.8,57.8,0,0,0,1.43-10.05l3.47,10.48a31.9,31.9,0,0,1,1.82,7C1828,511,1827,515,1825,518c-1.08,1.63-1,4-3,7-5.29,7.93-13,12-25.84,16" transform="translate(0 0.13)"/><path class="b" d="M1796.29,540.62a29.46,29.46,0,0,1,2.86-21.72c3.32-5.77,8.2-9.27,13.76-12.64,3.36-2,6.07-4.14,7.45-7.93a37.05,37.05,0,0,0,1.65-7.44,28.49,28.49,0,0,0,.36-3.44c-.39-.21,1,3.82.91,3.67,2,6.18,4.11,12.12,3.62,18.74-.33,4.34-2.46,8.22-4.08,12.19-4.35,10.68-16.7,15.25-26.75,18.62-.42.14-.25.79.18.66,10.47-3.14,23.21-7.87,27.7-18.9,1.82-4.48,3.91-8.35,4.07-13.3.28-8.3-3.14-15.72-5.58-23.5a.49.49,0,0,0-1,.13c-.64,7.64-1.44,15-8.4,19.39-4.18,2.67-8.11,5-11.37,8.81A28.45,28.45,0,0,0,1796,540.7a.16.16,0,0,0,.32-.08Z" transform="translate(0 0.13)"/><path class="b" d="M1786.11,478.68a22.16,22.16,0,0,0,1.94,8.85c2.57,5.24,5.21,10.9,4.29,16.65-.89,5.56-5,10.19-5.92,15.74-.6,3.5.1,7.09.91,10.56.94,4,2.21,8.35,5.48,10.9-6.69-.28-12.84-3.79-18-8.06a29.5,29.5,0,0,1-7.88-9.18c-3-6-2.65-13.16-.79-19.59a45,45,0,0,1,20-25.87" transform="translate(0 0.13)"/><path class="b" d="M1785.5,478.68c0,6,2.62,10.06,4.61,15.55,2.86,7.89.19,13.2-2.74,20.42-3.31,8.17-2,21.09,4.89,27.28l.55-1.33c-14.39-1.24-28.65-14.54-27.42-29.45,1.11-13.39,9.82-25.11,20.95-32.08.49-.31,0-1.09-.45-.78-12.18,7.67-21.81,21.38-21.75,36.22s14.69,26.57,28.67,27.65a.78.78,0,0,0,.55-1.33c-4.4-3.9-6.44-11.62-6.52-17.39s3.33-10.14,5.28-15.37c4.07-10.85-4.58-19-5.39-29.39-.06-.78-1.24-.8-1.23,0Z" transform="translate(0 0.13)"/><path class="b" d="M1185.88,521c2,14,20.21,10.52,27.88,3.6a15,15,0,0,0,4.85-7.24c.85-3.16,1.94-6.45,2.61-9.66,1-5,.55-9.84-4.23-12.49-11.84-6.58-24.78,5.95-32.65,13.25a220.92,220.92,0,0,1-17.29,14.75c-2.56,1.92-5.19,4.18-8,5.63-5.65,2.87-10.13-1.88-12.65-6.44a3.9,3.9,0,0,0-5.28-1.39c-1.86,1.15-9.18-4.69-10.31-6.26a9.5,9.5,0,0,1-1.88-5.3c.27-3.35,4.14-4.14,6.79-4.76a3.74,3.74,0,0,0,2.73-3.58c-.21-3.5-.1-11.41,5.62-10.24,4.1.83,5.87-5.33,1.74-6.31-10.54-2.48-14.39,8.07-14.78,16.55l2.72-3.58c-4.85.8-10.79,3-13.9,7a12.05,12.05,0,0,0,0,15c5,6.65,18.76,16.08,25.94,7.54h-5.47c5.93,7,13.55,11.93,22.41,6.61,9.19-5.52,17.11-13.33,25.22-20.26,4.44-3.8,8.8-8.13,14-10.89,4.8-2.55,16.41-5.35,13.42,4.35-1,3.12-2.86,4.46-5.32,6.36-1.93,1.5-3.36,3.21-5.58,4.36-3.33,1.72-9.1,2.88-12.09-.38s-7,.31-6.46,3.77Z" transform="translate(0 0.13)"/><path class="b" d="M1122.13,479.18c8.49,11.94,26,16.76,36.93,5.09l-4.36,1.15c5.67,2.08,13.56-.13,18.39-3.41a18.18,18.18,0,0,0,8.08-14.79l-7.92,2.14c2.75,5.62,13.85,4.86,18.69,2.87,5.65-2.33,10-8.47,5.14-13.67a2,2,0,0,0-3,.39c-1.07,2.06-3.28,4.91-5.35,5.78-2.26.95-7.14,1.19-9.27-.21l1.92,2.51-.33-.94a4.27,4.27,0,0,0-8.34,1.13c-.34,6.78-9.28,11.95-15.59,9.56a4.41,4.41,0,0,0-4.36,1.15,18.77,18.77,0,0,1-13.44,6c-5.7.28-10.37-3.05-14.06-7.14-1.48-1.63-4.4.55-3.09,2.39Z" transform="translate(0 0.13)"/><path class="b" d="M1123.19,508c-8.36,9-19.15,13.09-29,3.63-3.25-3.13-7.8-3.89-11.39-6.6a20.57,20.57,0,0,1-8.3-15,21.34,21.34,0,0,1,4.88-14.72c3.47-4.16,8.35-6.32,11.36-11s4.93-9.39,8.6-13.52a52.92,52.92,0,0,1,12.8-10.38c10.38-6.13,23-9.82,35-11.15,6.45-.73,11,1.46,16.9,3.59,6.09,2.22,12.11,1.53,18.43,2,5.88.41,11.33,2.5,16.74,4.7,5.81,2.35,11.31,4.75,14.73,10.27a89.25,89.25,0,0,0,9,12.82,22.26,22.26,0,0,1,4.53,6.56c1.46,3.78-.39,6.37-.94,10-.25,1.62.05,3.53-.46,5.08-.57,1.72-2.23,3.22-3.34,4.58a74.36,74.36,0,0,0-4.93,6.66,43.5,43.5,0,0,0-6.67,16.47c-1.67,10.14,1,20.94,9.83,26.83,2.73,1.81,5-2,3.23-4.2-8.75-11.11-6.27-24.64.94-35.75,3.27-5,8.11-9,8.79-15.23s3.12-11.57.29-17.8c-2.67-5.89-8.12-9.7-11.57-15.06s-6-10.05-11.67-13.38c-4.83-2.83-10.42-4.8-15.71-6.59-7.4-2.51-14.16-2.2-21.81-2.61-6.87-.36-12.43-4.33-19.13-5.25s-13.87,1-20.4,2.63c-11.91,3.05-23.56,7.74-33.08,15.69a51,51,0,0,0-11.55,13.66c-1.59,2.74-2.8,5.84-4.88,8.27s-5.06,3.93-7.45,6.07a27.4,27.4,0,0,0-7.24,30.08,27.93,27.93,0,0,0,10.43,13c3,2,6.77,2.5,9.7,4.61,2.77,2,5,4.12,8.24,5.45,10.73,4.43,25.81-.1,27.9-12.68.26-1.56-1.61-3.06-2.88-1.68Z" transform="translate(0 0.13)"/><path class="b" d="M1084.46,467.54a55.29,55.29,0,0,1,13.39-2.83c3.76-.19,7.24,1.06,10.93,1.14,1.56,0,2.63-2.16,1.35-3.24-7.34-6.16-19.43-1.51-26.86,2.1-1.58.77-.48,3.35,1.19,2.83Z" transform="translate(0 0.13)"/><path class="b" d="M1122.94,454.55a15.94,15.94,0,0,0-10.21,3.4,16.39,16.39,0,0,0-3.52,4c-1.55,2.5-3.09,2.53-5.75,3.68-7.3,3.19-12,11-6.51,18.07l1.36-5.17c-5.32,1.6-7.3,7.05-7.94,12.16-.84,6.64,2.27,10.59,7.65,14,3.32,2.12,6.39-3.16,3.08-5.28-3.12-2-5.08-3.93-4.62-7.93.25-2.19,1-6.27,3.48-7a3.14,3.14,0,0,0,1.36-5.18c-3.11-3.65,1.61-7.48,4.51-9,1.77-.9,4.49-1.28,5.87-2.85,1.56-1.75,1.92-4.21,3.62-6a14.13,14.13,0,0,1,8-4.13c1.62-.29,1.21-2.84-.38-2.83Z" transform="translate(0 0.13)"/><path class="b" d="M1156.35,482.78c3.43,2.57,9.34,5,9.25,9.91-.09,4.36-4.23,6.55-5.12,10.52a2.35,2.35,0,0,0,2.24,2.93c6.71.37,10.69-8.68,9.8-14.38-1.21-7.72-8.39-10-15-11.87-1.84-.53-2.57,1.88-1.21,2.89Z" transform="translate(0 0.13)"/><path class="b" d="M1136.47,451.19a14.13,14.13,0,0,1,9-4.3,12.59,12.59,0,0,1,4.57.5c.52.16,2.15,1.17,3,1.11,2.74-.21,5-2.63,8.07-2.87,3.41-.27,6,1.08,9.15,2.06,2.18.68,4.07-2.38,2.29-3.94-5.69-5-14.9-3.65-20.68.47h2.33c-7.37-3.24-15.37-1.49-20.08,5.18-1,1.39,1.16,3,2.32,1.79Z" transform="translate(0 0.13)"/><path class="b" d="M1173.43,430.7c-4.73-2.08-11.44-1.53-16.13.7-4.33,2.05-9.14,7.9-7.52,12.84a2.46,2.46,0,0,0,4.43.58c2.15-2.85,2.64-6.53,6-8.36,3.1-1.68,8.13-2.75,11.47-1.71,2.34.73,4-3,1.7-4.05Z" transform="translate(0 0.13)"/><path class="b" d="M1203.63,534c-10.12-2.14-18.67-8.69-29-10.06-6-.8-17.4-.09-19.3,7.24a1.17,1.17,0,0,0,.81,1.43c3,.73,6.18-.13,9.21-.28a58.43,58.43,0,0,1,12.59,1c8.46,1.44,16.75,3.09,25.33,3.63a1.52,1.52,0,0,0,.4-3Z" transform="translate(0 0.13)"/><path class="b" d="M1206.85,534.84c-9.35-4-21-8.91-31.35-6.73-1.79.38-2.24,3.24-.53,4,4.49,2.12,9.43,2.71,14.29,3.55,5.3.91,10.61,2,15.83,3.31,2.39.58,4.24-3.13,1.76-4.18Z" transform="translate(0 0.13)"/><path class="b" d="M1181.88,528.56c-5.5-.85-11.1-2.11-16.66-2.47-3.3-.22-7.73.33-8.33,4.28a1.17,1.17,0,0,0,.79,1.39c3,1.07,6.88.4,10.1.74,4.46.46,8.93.82,13.4,1.24,2.93.27,3.64-4.73.7-5.18Z" transform="translate(0 0.13)"/><path class="b" d="M1161.66,502.29c-4,3.45-.38,8.52,3.59,9.76,3.47,1.08,10.74.44,10.62-4.54a2,2,0,0,0-1.44-1.89c-1.85-.46-3.29.46-5,.77a5.2,5.2,0,0,1-2.22-.06,9.51,9.51,0,0,0-1-.39c-1.44.29,1.87-1.41-.3.53,2.85-2.55-1.32-6.65-4.18-4.18Z" transform="translate(0 0.13)"/><path class="b" d="M1211.83,466.39c-8.27,4.1-11.15,16.07-5,23.24,1.75,2,5-.15,4.37-2.55-.85-3.06-2.35-5.7-2.06-9a9.68,9.68,0,0,1,5.05-7.74c2.57-1.48.31-5.24-2.31-3.95Z" transform="translate(0 0.13)"/><path class="b" d="M1206.26,476.91a16.7,16.7,0,0,0-9.75,3.15c-2.21,1.67-5.56,5.16-3.91,8.13a1.73,1.73,0,0,0,1.87.76c2.16-.3,3.78-3.21,5.4-4.54a13.88,13.88,0,0,1,7-3.08c2.54-.36,1.89-4.46-.6-4.42Z" transform="translate(0 0.13)"/><path class="b" d="M1199.83,537.33c4,1.47,8.09,3.08,11.43,5.86,3.55,2.94,6.27,6.87,9,10.54,5.43,7.31,13.85,15.8,11.7,25.71-.83,3.78-3.08,7.59-5.27,10.74-3.17,4.58-7.22,6.32-12.7,6.43-10,.2-19.19-3.2-27.71-8.21-7-4.1-14.07-8.87-22.32-9.84s-16,2.26-22.54,6.92a58.5,58.5,0,0,0-13.25,13.12c-4,5.47-8.12,13.33-7,20.3.22,1.38,2,1.27,2.7.35,4-5.64,6.49-12,10.93-17.41a54,54,0,0,1,14-12.23c7.67-4.63,15.21-4.92,23.47-1.56,7.16,2.91,13.53,7.44,20.8,10.14,11,4.09,28.66,7.08,36.92-3.6,3.53-4.57,6.86-10.43,7.53-16.25.8-7-2.12-12.94-6-18.51-7-10-16.87-28.19-31.71-25.62-1.72.3-1.34,2.63,0,3.12Z" transform="translate(0 0.13)"/><path class="b" d="M1124.05,618.91c2.09-5.58,5.45-12.93,12.54-12.08,11.27,1.35,14.23,14,13.31,23.46-1,9.79-7.72,17.2-11.39,26-3.15,7.53,0,13.46,4.93,19.53.88,1.09,2.68-.32,1.94-1.49-1.73-2.7-3.71-5.71-4.57-8.83-1.15-4.21,1.08-7.25,3.28-10.62,3.23-4.94,8.19-8.77,10.78-14.11,4.65-9.62,3.15-21.85-3.25-30.27-4.27-5.63-11.47-10.19-18.81-8.48-7.55,1.75-10.49,9.2-11.67,16.08a1.51,1.51,0,0,0,2.91.81Z" transform="translate(0 0.13)"/><path class="b" d="M1149.78,641.79c-1.9,3.51-3.69,7-1.24,10.75a28,28,0,0,0,11.36,9.36c5,2.11,10.59,2.49,15.34,5.41,6.46,4,6.51,13.39,5.17,20-.18.88,1,1.86,1.7,1,6.1-7.77,7.73-20-1.3-26.24-4.51-3.13-10-4.2-15.31-5.26a34.29,34.29,0,0,1-8.69-2.89c-1.86-.92-4.42-1.93-5.46-3.87s-.62-5.56-.16-7.68c.18-.82-1-1.4-1.41-.59Z" transform="translate(0 0.13)"/><path class="b" d="M1159.89,659.73a13.55,13.55,0,0,1,3.92,14.47c-1.41,4.62-4.8,8.47-6.52,13-.32.83.9,1.48,1.47.86,7.58-8.28,13.73-21.86,2.11-29.59-.76-.5-1.68.67-1,1.27Z" transform="translate(0 0.13)"/><path class="b" d="M1201.69,597.52c-3.07-1.45-5-5.65-7-8.26a68.4,68.4,0,0,1-5.14-7.21c-3.08-5.29-5.53-11.38-4.65-17.63,1-7.08,7.11-8,13.17-7,5.76.94,10,4.11,15.2,6.27a1.17,1.17,0,0,0,1.47-1.12c-.55-7.89-10.43-11.22-17-12.34-8.07-1.39-17.5-.7-21.32,7.7-3.65,8,.29,17.52,5.13,24.12,4.48,6.1,11.86,14.79,19.37,17.13,1,.3,1.65-1.22.7-1.67Z" transform="translate(0 0.13)"/><path class="b" d="M1236,577.07c-4.5,3.92-6,3.45-10.13,3.49a19,19,0,0,1-4.14-.37,10.77,10.77,0,0,1-7.43-5.25,13.17,13.17,0,0,0,2.74,7.35c.71.94,1.46,2.1,2.82,2.38,9.39,2,13.33-5,16.14-7.6" transform="translate(0 0.13)"/><path class="b" d="M1235.85,576.92c-5.82,4.77-16.93,5.1-21.19-2.18-.2-.34-.82-.22-.78.2.63,6.3,4.09,11.18,10.78,10.35,5.32-.66,8-4.5,11.45-8.1a.16.16,0,0,0-.22-.23c-2.93,2.64-5.36,6-9.32,7.16-3.28,1-7.07.93-9.21-2a13.89,13.89,0,0,1-2.27-4.71c-.58-2.28-.64-1.14.53,0,5.5,5.51,15.05,4.45,20.53-.19.21-.17-.09-.47-.3-.3Z" transform="translate(0 0.13)"/><path class="b" d="M1119.58,641.2a16,16,0,0,1,.53-10.47,17.37,17.37,0,0,1,6.73-8c2-1.27,4.34-2.25,5.54-4.28a9.24,9.24,0,0,0,.93-2.61,32.83,32.83,0,0,0,.8-5.66l2,5.9a18.07,18.07,0,0,1,1,3.95c.42,4.35-.14,6.61-1.27,8.29-.61.92-.56,2.25-1.69,3.94-3,4.47-7.32,6.66-14.55,8.91" transform="translate(0 0.13)"/><path class="b" d="M1119.74,641.16a17.53,17.53,0,0,1,2.09-12.92c2.26-3.61,5.75-4.84,8.88-7.35a8.16,8.16,0,0,0,2.7-3.48,16.59,16.59,0,0,0,.82-3.34c.22-2.51-.28-2.41.19-1.53a18.9,18.9,0,0,1,.48,16.42c-2.91,7-8.55,9.5-15.41,11.91-.41.15-.25.79.18.66,6.3-1.83,13-4.38,15.86-10.81,1.21-2.77,2.25-5.08,2.22-8.16,0-4.39-1.93-8.34-3.17-12.48a.49.49,0,0,0-.95.13c-.25,2.31-.4,5.86-1.67,8s-3.44,2.89-5.32,4.18a19.22,19.22,0,0,0-5,4.84,15.81,15.81,0,0,0-2.21,14,.17.17,0,0,0,.32-.09Z" transform="translate(0 0.13)"/><path class="b" d="M1113.93,606.22a12.36,12.36,0,0,0,1.1,5c1.44,2.94,2.92,6.13,2.41,9.37s-2.8,5.73-3.33,8.85a15.2,15.2,0,0,0,.51,6c.53,2.27,1.24,4.7,3.08,6.13-3.76-.15-7.22-2.13-10.13-4.53a16.63,16.63,0,0,1-4.43-5.17c-1.69-3.37-1.49-7.41-.44-11a25.32,25.32,0,0,1,11.23-14.56" transform="translate(0 0.13)"/><path class="b" d="M1113.32,606.22c-.08,2.67.69,4.53,1.68,6.91,1.55,3.73,2,6.28.66,10.11-.54,1.52-1.37,2.93-1.8,4.49-1.25,4.63-.13,10.89,3.29,14.34l.55-1.34c-8.84-1.1-16.58-9.11-14.93-18.24,1.23-6.74,5.75-12.26,11.39-15.88.48-.31,0-1.09-.45-.77-7.08,4.58-12.72,12.6-12.37,21.35.32,8.29,8.62,14.37,16.36,15.11a.79.79,0,0,0,.56-1.34c-3.58-3.5-4.34-9.67-2.53-14.14.87-2.13,2.21-3.77,2.55-6.13.74-5.24-3-9.63-3.75-14.63-.11-.71-1.19-.5-1.21.16Z" transform="translate(0 0.13)"/><path class="c" d="M2588.62,526.79c3.5,14.47,22.41,9.46,30.11,1.64,2.85-2.9,3.52-5.58,4.92-9.31,1.17-3.15,2.55-6.19,3-9.58.62-4.92-.87-8.81-5.53-10.93-13.31-6.05-26.94,8-35.66,15.95a260.64,260.64,0,0,1-21.06,17.63c-3.47,2.56-7.57,6.48-12.16,6.22-5.06-.29-8.78-4.87-11.12-8.89a2.91,2.91,0,0,0-4-1c-2.27,1.63-6.73-1.36-8.72-2.54a17.68,17.68,0,0,1-6.6-6.36c-3.87-7.06,1.56-10.84,8.08-12.26a2.81,2.81,0,0,0,2-2.68c-.21-4.95.64-14.51,8.14-12.82,3.07.7,4.38-4,1.3-4.73-11-2.71-14.78,8.93-15,17.55l2-2.68c-10.31,1.75-22.06,10.87-14.43,22,4.52,6.61,19.41,17.57,26.66,9h-4.1c6.43,8,14.71,13.33,24.49,7.1,10.76-6.86,20.16-15.88,29.76-24.2,5.2-4.51,10.4-9.62,16.92-12.16,5.88-2.29,17.29-2.83,14.25,6.79-1.91,6-6.59,11.07-12,14.31-4.12,2.45-12.45,4.56-16-.32-1.87-2.57-6.12-1.13-5.3,2.24Z" transform="translate(0 0.13)"/><path class="c" d="M2515.15,479.69c9.45,13.23,29.14,18.48,41.21,5.49l-4.36,1.15c6.26,2.29,15.06-.15,20.4-3.8a20,20,0,0,0,8.88-16.26l-8.34,1.13c2.52,7,14.67,6.31,20.43,4.26,6.5-2.32,11.22-9,6.33-15-1-1.25-2.75-.35-3.23.85-.95,2.37-3.64,5.63-6,6.5a14.5,14.5,0,0,1-5.24.69c-.75,0-4.47-.86-4.14.46-1.18-4.78-8.15-3.55-8.35,1.13-.34,8.06-10.89,14.25-18.39,11.41a4.41,4.41,0,0,0-4.37,1.16,21.41,21.41,0,0,1-15.66,6.83c-6.51.23-12-3.65-16.12-8.36-1.46-1.66-4.4.55-3.09,2.38Z" transform="translate(0 0.13)"/><path class="c" d="M2516.29,512.66c-9,10.52-21.63,15.18-32.76,4.83-3.8-3.54-8.53-4.5-12.73-7.47a24.14,24.14,0,0,1-10-15.42,24.46,24.46,0,0,1,3.51-16.86c3.39-5.39,9.31-7.77,13.13-12.68,3.29-4.22,5.14-9.35,8.24-13.71A55.71,55.71,0,0,1,2501,437.07c11.95-7.73,26.34-11.84,40.32-14,7.48-1.15,13.14.68,20.05,3.36s13.21,2.38,20.36,2.61,13.47,2.47,20,5.07c6.72,2.69,13.38,5.35,17.44,11.67,3.21,5,5.84,9.72,9.82,14.17,2.38,2.66,4.94,5.36,6.16,8.79,1.28,3.63-.11,5.93-1,9.3-1,3.9-.11,7.16-2.66,10.63-1.76,2.39-3.81,4.56-5.56,7a53,53,0,0,0-8.88,18.31c-3,12.06-.54,25.79,10.17,33.13,2.67,1.84,5-2,3.24-4.19-10.17-12.33-7.53-27.93.52-40.53,3.39-5.31,9.33-10.08,10.14-16.62a58.88,58.88,0,0,1,1.69-9.33,16.34,16.34,0,0,0-.43-9.66c-2.32-6.7-7.93-10.92-12.09-16.37-4.38-5.74-6.67-12.1-12.88-16.33-12.27-8.35-27.59-11.48-42.09-11.57-8.72-.06-15.35-4.78-23.71-6-7.14-1-14.54.85-21.43,2.53-14.36,3.5-28.52,9-39.83,18.76a57.93,57.93,0,0,0-12.95,16c-1.66,3-3.1,6.29-5.49,8.83s-5.6,4.16-8.15,6.53a30.4,30.4,0,0,0,5.08,48.48c3.18,1.83,7.07,2.35,9.91,4.64s5.21,4.36,8.48,5.8c12.11,5.36,29.16.43,31.94-13.74.3-1.54-1.67-3.1-2.88-1.68Z" transform="translate(0 0.13)"/><path class="c" d="M2472.17,466.43a67.71,67.71,0,0,1,13.75-3.16c4.83-.51,9.15.89,13.88,1.2,2.1.13,2.28-2.52,1-3.54-8.26-6.36-21.58-1.23-29.78,2.67-1.58.76-.47,3.37,1.19,2.83Z" transform="translate(0 0.13)"/><path class="c" d="M2515.84,452.1a17.83,17.83,0,0,0-11.82,4.25,30.41,30.41,0,0,0-3.93,4.86c-1.73,2.24-4,2.61-6.6,3.77-7.69,3.46-12.9,12.3-6.82,19.68l1.37-5.17c-5.92,1.67-7.94,7.9-8.71,13.44-1,7.4,2.54,11.72,8.47,15.49,3.33,2.12,6.4-3.16,3.09-5.28-3.72-2.37-6-4.61-5.44-9.39.34-2.71,1.11-7.43,4.23-8.3a3.13,3.13,0,0,0,1.37-5.17c-3-3.33.15-7.63,3.1-9.58,2.46-1.63,6.06-1.95,8.25-3.85,1.95-1.7,2.46-4.92,4.23-6.87a16,16,0,0,1,9.59-5.05c1.63-.26,1.21-2.85-.38-2.83Z" transform="translate(0 0.13)"/><path class="c" d="M2553.82,483.73c4.1,2.93,10.89,5.62,10.85,11.41,0,5-4.53,7.61-6,12a2.33,2.33,0,0,0,2.23,2.94c7.24-.29,11.61-9.37,10.66-15.87-1.26-8.61-9.31-11.1-16.55-13.37-1.82-.57-2.6,1.9-1.22,2.89Z" transform="translate(0 0.13)"/><path class="c" d="M2531,448a16.21,16.21,0,0,1,10.1-5,13.74,13.74,0,0,1,5.22.47c1.15.34,2.4,1.41,3.63,1.31,1-.07,1.52-.66,2.35-1.1a17.11,17.11,0,0,1,6.92-2.18c3.81-.28,6.82,1.27,10.34,2.37,2.2.69,4-2.36,2.29-3.94-6.22-5.59-16.76-4-23.06.57h2.32c-8.15-3.67-17.19-1.66-22.43,5.71-1,1.37,1.18,3,2.32,1.79Z" transform="translate(0 0.13)"/><path class="c" d="M2572.93,425.14c-5.26-2.28-12.75-1.6-17.94.86-4.86,2.31-9.85,8.61-8.41,14.14a2.45,2.45,0,0,0,4.43.58c2.25-3.37,3-7.68,6.93-9.66,3.7-1.86,9.34-3.13,13.28-1.88,2.35.75,4-3,1.71-4Z" transform="translate(0 0.13)"/><path class="c" d="M2607.15,542.48c-10.93-2-20.53-8.38-31.54-10.09-7.25-1.12-18.34-1-22.58,6.25a.88.88,0,0,0,.75,1.31c4-.19,7.94-1.44,12-1.6a59.43,59.43,0,0,1,13.69,1.4c9.15,1.78,18.06,4.17,27.37,5a1.14,1.14,0,0,0,.3-2.23Z" transform="translate(0 0.13)"/><path class="c" d="M2610.1,543.5c-10.33-4-22.73-8.73-34-7.45a1.67,1.67,0,0,0-.45,3.27c5.36,1.92,11.2,2.48,16.78,3.56s11.25,2.39,16.77,3.93c2.17.6,2.93-2.53.91-3.31Z" transform="translate(0 0.13)"/><path class="c" d="M2582.39,536.77c-6.08-.87-12.18-2-18.28-2.57-3.7-.35-7.39,0-9.28,3.57a.85.85,0,0,0,.73,1.27c3.81,0,7.27-.37,11.11.06,5.06.55,10.13,1,15.19,1.56,2.19.22,2.73-3.57.53-3.89Z" transform="translate(0 0.13)"/><path class="c" d="M2560,506.3c-4.29,3.71-.34,9.08,3.89,10.4s11,.45,11.67-4.75c.15-1.13-1-1.88-2-2-1.94-.19-3.52.92-5.38,1.16a6.27,6.27,0,0,1-2.72-.24,3.94,3.94,0,0,1-1.19-.56c-.23-.35-.27-.3-.13.14,2.86-2.54-1.32-6.65-4.17-4.18Z" transform="translate(0 0.13)"/><path class="c" d="M2616.76,465.6c-9.28,4.64-12.18,17.7-5.63,25.82a2.59,2.59,0,0,0,2.54.67c3.24-.75,1.25-4.81.57-6.7-2.19-6.06-1.09-12.48,4.82-15.85,2.58-1.46.31-5.25-2.3-3.94Z" transform="translate(0 0.13)"/><path class="c" d="M2610.29,477.56a18.77,18.77,0,0,0-10.51,3.31c-2.37,1.71-6.14,5.37-5,8.66a1.69,1.69,0,0,0,2,1.16c2.36-.68,3.83-3.43,5.66-5a15.32,15.32,0,0,1,7.77-3.66c2.77-.37,3-4.58,0-4.5Z" transform="translate(0 0.13)"/><path class="c" d="M2603.17,545.14c15.59,4.1,24.62,18.4,33,31.22,5.39,8.2,5.83,16.33,1.08,24.93-2,3.64-4.28,7.75-7.86,10.06-4.08,2.63-9.19,2.71-13.88,2.47a57.9,57.9,0,0,1-24.12-6.74c-6.57-3.47-12.68-7.78-19.58-10.62-13.38-5.51-26-1.6-37,7.13-9.74,7.75-20.88,21-20.49,34.16a1.11,1.11,0,0,0,2.06.56c3.7-7.12,6.65-13.93,11.75-20.26a61.3,61.3,0,0,1,14.26-13c8.07-5.23,16.19-7.44,25.61-4.55,8.67,2.66,16.06,8.21,24.3,11.85,11.28,5,32,10.07,42,.09,4.86-4.81,9.12-12.57,10.23-19.32,1.18-7.14-1.4-13.65-5.3-19.5-4.92-7.37-10.16-15.09-16.15-21.64-4.92-5.38-12.1-9.87-19.66-9.21a1.22,1.22,0,0,0-.32,2.38Z" transform="translate(0 0.13)"/><path class="c" d="M2516.55,638.06c2.27-6.77,6.14-15.29,14.59-14.54,13.09,1.16,17.54,15.64,16.78,26.78-.8,11.62-8.81,19.66-13.38,29.83-1.56,3.47-2.93,6.72-1.79,10.51a37.44,37.44,0,0,0,6.67,11.75c.64.82,2-.25,1.45-1.12-2-3-4.34-6.52-5.36-10.09-1.31-4.56.75-8,3.07-11.85,3.29-5.43,8.27-9.74,11.35-15.25,5.63-10.05,4.8-24-1.51-33.47-4.46-6.71-12.5-12.39-20.94-10.66s-11.61,10.06-13.12,17.5a1.14,1.14,0,0,0,2.19.61Z" transform="translate(0 0.13)"/><path class="c" d="M2546.35,664.2c-2.18,4.18-4.18,8.44-.81,12.67s8.74,8.54,14,10.3c6.05,2,13.91,2.7,18.59,7.54,5,5.2,4.36,14.69,2.95,21.09-.2.89,1,1.86,1.7,1,6.7-8.55,8.22-22.54-1.71-29.3-5.08-3.46-11.24-4.65-17.14-5.88a37.9,37.9,0,0,1-10.47-3.71c-2.88-1.56-5.07-2.6-6-5.87a14.13,14.13,0,0,1,.28-7.24c.19-.82-1-1.4-1.42-.59Z" transform="translate(0 0.13)"/><path class="c" d="M2557.8,684.41c5.62,4.82,6.68,12.62,3.51,19.18-2,4.11-4.81,7.76-6.42,12-.31.83.9,1.48,1.47.86,8.57-9.23,15.29-24.66,2.42-33.36-.75-.51-1.68.67-1,1.27Z" transform="translate(0 0.13)"/><path class="c" d="M2605.05,614.07c-3.33-1.54-5.54-6-7.76-8.85a93.59,93.59,0,0,1-6.23-8.47c-3.53-5.86-6.42-12.71-5.68-19.7.92-8.6,7.85-10.2,15.36-9,6.63,1,11.51,4.36,17.28,7.37a1.18,1.18,0,0,0,1.71-1.31c-1.35-8.83-12.49-12.18-20-13.35-9-1.41-19.28-.09-23,9.45-3.46,9,1,19.37,6.39,26.62A82,82,0,0,0,2593.37,608c3.08,2.8,7,6.46,11,7.74,1,.31,1.65-1.23.7-1.67Z" transform="translate(0 0.13)"/><g class="d"><path class="c" d="M2526.55,636.51" transform="translate(0 0.13)"/></g><path class="c" d="M2644,590.79c-5.1,4.44-6.75,3.91-11.48,4a21,21,0,0,1-4.69-.42c-3.8-.82-7-3.09-8.43-5.94a15,15,0,0,0,3.11,8.32c.8,1.07,1.65,2.38,3.19,2.7,10.64,2.23,15.11-5.65,18.3-8.61" transform="translate(0 0.13)"/><path class="c" d="M2643.63,590.42c-6.4,5.14-18.7,5.35-23.33-2.57-.49-.83-2-.54-1.94.53.73,7.39,4.95,13.17,12.79,12.24,6.27-.74,9.36-5.13,13.13-9.55a.4.4,0,0,0-.56-.56c-2.76,2.25-5.1,5.12-8.29,6.8-2.59,1.35-6.63,2.33-9.48,1.21-3.61-1.42-5.17-6.7-5.51-10.14l-1.94.52c2.83,4.82,7.82,6.65,13.23,6.7s8.47-.84,12.64-4.44c.52-.44-.22-1.16-.74-.74Z" transform="translate(0 0.13)"/><path class="c" d="M2526.21,631.89" transform="translate(0 0.13)"/><path class="c" d="M2512,663.37a17.8,17.8,0,0,1,.61-11.76,19.65,19.65,0,0,1,7.63-9c2.26-1.44,4.92-2.55,6.27-4.85a10.33,10.33,0,0,0,1.06-3,37.35,37.35,0,0,0,.91-6.41l2.22,6.69a21.25,21.25,0,0,1,1.16,4.48c.47,4.93-.17,7.48-1.45,9.4-.69,1-.63,2.55-1.91,4.46-3.37,5.06-8.29,7.66-16.49,10.21" transform="translate(0 0.13)"/><path class="c" d="M2512.09,663.36a18.74,18.74,0,0,1,3.77-16.75c2.25-2.62,5.22-4,8-6a8.89,8.89,0,0,0,3.55-4.29c.59-1.53.53-3.17,1-4.71.73-2.29-.15-1.92.76-.73,1.92,2.5,2.78,9,2.65,11.9a19,19,0,0,1-2.17,7.44c-3.56,7.73-9.84,10.63-17.64,13.22-.17,0-.1.32.07.26,6.66-2.06,14.2-4.9,17.41-11.64a23.3,23.3,0,0,0,2.74-8.6c.3-5.34-1.93-10.2-3.53-15.18a.19.19,0,0,0-.38.05c-.25,2.88-.41,6.7-1.94,9.28-1.23,2-3.16,2.94-5,4.11a22,22,0,0,0-6.61,5.85,18.31,18.31,0,0,0-2.77,15.8.07.07,0,0,0,.13,0Z" transform="translate(0 0.13)"/><path class="c" d="M2505.64,623.83a14,14,0,0,0,1.24,5.65c1.63,3.34,3.31,6.95,2.73,10.62s-3.17,6.5-3.78,10a17.32,17.32,0,0,0,.58,6.74c.6,2.58,1.41,5.33,3.5,7-4.27-.17-8.19-2.42-11.48-5.14a18.72,18.72,0,0,1-5-5.86c-1.91-3.81-1.69-8.39-.5-12.49a28.67,28.67,0,0,1,12.74-16.51" transform="translate(0 0.13)"/><path class="c" d="M2505.39,623.83a18.83,18.83,0,0,0,1.89,7.27c1.29,3,2.33,5.6,1.87,8.92-.35,2.57-1.74,4.67-2.65,7.06a18.08,18.08,0,0,0,1.14,14.37c1,1.82,2.15,1.76-.77,1.56-1.62-.1-4.24-1.76-5.68-2.7-4.89-3.18-8.74-7.55-9-13.62-.36-9.36,6-17.87,13.51-22.7.19-.13,0-.44-.18-.31-7.9,5.07-14.28,14-13.75,23.81.49,9,9.66,15.84,18.11,16.66a.32.32,0,0,0,.22-.54c-2.84-2.7-4.31-7.89-4.19-11.78.13-4.1,2.94-7.06,3.82-10.89,1.4-6.13-3.31-11.21-3.88-17.11,0-.31-.5-.32-.49,0Z" transform="translate(0 0.13)"/><path class="c" d="M2593.62,170.79c3.5,14.47,22.41,9.46,30.11,1.64,2.85-2.9,3.52-5.58,4.92-9.31,1.17-3.15,2.55-6.19,3-9.58.62-4.92-.87-8.81-5.53-10.93-13.31-6.05-26.94,8-35.66,15.95a260.64,260.64,0,0,1-21.06,17.63c-3.47,2.56-7.57,6.48-12.16,6.22-5.06-.29-8.78-4.87-11.12-8.89a2.91,2.91,0,0,0-4-1c-2.27,1.63-6.73-1.36-8.72-2.54a17.68,17.68,0,0,1-6.6-6.36c-3.87-7.06,1.56-10.84,8.08-12.26a2.81,2.81,0,0,0,2-2.68c-.21-4.95.64-14.51,8.14-12.82,3.07.7,4.38-4,1.3-4.73-11-2.71-14.78,8.93-15,17.55l2-2.68c-10.31,1.75-22.06,10.87-14.43,22,4.52,6.61,19.41,17.57,26.66,9h-4.1c6.43,8,14.71,13.33,24.49,7.1,10.76-6.86,20.16-15.88,29.76-24.2,5.2-4.51,10.4-9.62,16.92-12.16,5.88-2.29,17.29-2.83,14.25,6.79-1.91,6-6.59,11.07-12,14.31-4.12,2.45-12.45,4.56-16-.32-1.87-2.57-6.12-1.13-5.3,2.24Z" transform="translate(0 0.13)"/><path class="c" d="M2520.15,123.69c9.45,13.23,29.14,18.48,41.21,5.49l-4.36,1.15c6.26,2.29,15.06-.15,20.4-3.8a20,20,0,0,0,8.88-16.26l-8.34,1.13c2.52,7,14.67,6.31,20.43,4.26,6.5-2.32,11.22-9,6.33-15-1-1.25-2.75-.35-3.23.85-.95,2.37-3.64,5.63-6,6.5a14.5,14.5,0,0,1-5.24.69c-.75,0-4.47-.86-4.14.46-1.18-4.78-8.15-3.55-8.35,1.13-.34,8.06-10.89,14.25-18.39,11.41a4.41,4.41,0,0,0-4.37,1.16,21.41,21.41,0,0,1-15.66,6.83c-6.51.23-12-3.65-16.12-8.36-1.46-1.66-4.4.55-3.09,2.38Z" transform="translate(0 0.13)"/><path class="c" d="M2521.29,156.66c-9,10.52-21.63,15.18-32.76,4.83-3.8-3.54-8.53-4.5-12.73-7.47a24.14,24.14,0,0,1-10-15.42,24.46,24.46,0,0,1,3.51-16.86c3.39-5.39,9.31-7.77,13.13-12.68,3.29-4.22,5.14-9.35,8.24-13.71A55.71,55.71,0,0,1,2506,81.07c11.95-7.73,26.34-11.84,40.32-14,7.48-1.15,13.14.68,20.05,3.36s13.21,2.38,20.36,2.61,13.47,2.47,20,5.07c6.72,2.69,13.38,5.35,17.44,11.67,3.21,5,5.84,9.72,9.82,14.17,2.38,2.66,4.94,5.36,6.16,8.79,1.28,3.63-.11,5.93-1,9.3-1,3.9-.11,7.16-2.66,10.63-1.76,2.39-3.81,4.56-5.56,7a53,53,0,0,0-8.88,18.31c-3,12.06-.54,25.79,10.17,33.13,2.67,1.84,5-2,3.24-4.19-10.17-12.33-7.53-27.93.52-40.53,3.39-5.31,9.33-10.08,10.14-16.62a58.88,58.88,0,0,1,1.69-9.33,16.34,16.34,0,0,0-.43-9.66c-2.32-6.7-7.93-10.92-12.09-16.37-4.38-5.74-6.67-12.1-12.88-16.33-12.27-8.35-27.59-11.48-42.09-11.57-8.72-.06-15.35-4.78-23.71-6-7.14-1-14.54.85-21.43,2.53-14.36,3.5-28.52,9-39.83,18.76a57.93,57.93,0,0,0-12.95,16c-1.66,3-3.1,6.29-5.49,8.83s-5.6,4.16-8.15,6.53a30.4,30.4,0,0,0,5.08,48.48c3.18,1.83,7.07,2.35,9.91,4.64s5.21,4.36,8.48,5.8c12.11,5.36,29.16.43,31.94-13.74.3-1.54-1.67-3.1-2.88-1.68Z" transform="translate(0 0.13)"/><path class="c" d="M2477.17,110.43a67.71,67.71,0,0,1,13.75-3.16c4.83-.51,9.15.89,13.88,1.2,2.1.13,2.28-2.52,1-3.54-8.26-6.36-21.58-1.23-29.78,2.67-1.58.76-.47,3.37,1.19,2.83Z" transform="translate(0 0.13)"/><path class="c" d="M2520.84,96.1a17.83,17.83,0,0,0-11.82,4.25,30.41,30.41,0,0,0-3.93,4.86c-1.73,2.24-4,2.61-6.6,3.77-7.69,3.46-12.9,12.3-6.82,19.68l1.37-5.17c-5.92,1.67-7.94,7.9-8.71,13.44-1,7.4,2.54,11.72,8.47,15.49,3.33,2.12,6.4-3.16,3.09-5.28-3.72-2.37-6-4.61-5.44-9.39.34-2.71,1.11-7.43,4.23-8.3a3.13,3.13,0,0,0,1.37-5.17c-3-3.33.15-7.63,3.1-9.58,2.46-1.63,6.06-2,8.25-3.85,1.95-1.7,2.46-4.92,4.23-6.87a16,16,0,0,1,9.59-5c1.63-.26,1.21-2.85-.38-2.83Z" transform="translate(0 0.13)"/><path class="c" d="M2558.82,127.73c4.1,2.93,10.89,5.62,10.85,11.41,0,5-4.53,7.61-6,12a2.33,2.33,0,0,0,2.23,2.94c7.24-.29,11.61-9.37,10.66-15.87-1.26-8.61-9.31-11.1-16.55-13.37-1.82-.57-2.6,1.9-1.22,2.89Z" transform="translate(0 0.13)"/><path class="c" d="M2536,92a16.21,16.21,0,0,1,10.1-5,13.74,13.74,0,0,1,5.22.47c1.15.34,2.4,1.41,3.63,1.31,1-.07,1.52-.66,2.35-1.1a17.11,17.11,0,0,1,6.92-2.18c3.81-.28,6.82,1.27,10.34,2.37,2.2.69,4-2.36,2.29-3.94-6.22-5.59-16.76-4-23.06.57h2.32c-8.15-3.67-17.19-1.66-22.43,5.71-1,1.37,1.18,3,2.32,1.79Z" transform="translate(0 0.13)"/><path class="c" d="M2577.93,69.14c-5.26-2.28-12.75-1.6-17.94.86-4.86,2.31-9.85,8.61-8.41,14.14a2.45,2.45,0,0,0,4.43.58c2.25-3.37,3-7.68,6.93-9.66,3.7-1.86,9.34-3.13,13.28-1.88,2.35.75,4-3,1.71-4Z" transform="translate(0 0.13)"/><path class="c" d="M2612.15,186.48c-10.93-2-20.53-8.38-31.54-10.09-7.25-1.12-18.34-1-22.58,6.25a.88.88,0,0,0,.75,1.31c4-.19,7.94-1.44,12-1.6a59.43,59.43,0,0,1,13.69,1.4c9.15,1.78,18.06,4.17,27.37,5a1.14,1.14,0,0,0,.3-2.23Z" transform="translate(0 0.13)"/><path class="c" d="M2615.1,187.5c-10.33-4-22.73-8.73-34-7.45a1.67,1.67,0,0,0-.45,3.27c5.36,1.92,11.2,2.48,16.78,3.56s11.25,2.39,16.77,3.93c2.17.6,2.93-2.53.91-3.31Z" transform="translate(0 0.13)"/><path class="c" d="M2587.39,180.77c-6.08-.87-12.18-2-18.28-2.57-3.7-.35-7.39,0-9.28,3.57a.85.85,0,0,0,.73,1.27c3.81,0,7.27-.37,11.11.06,5.06.55,10.13,1,15.19,1.56,2.19.22,2.73-3.57.53-3.89Z" transform="translate(0 0.13)"/><path class="c" d="M2565,150.3c-4.29,3.71-.34,9.08,3.89,10.4s11,.45,11.67-4.75c.15-1.13-1-1.88-2-2-1.94-.19-3.52.92-5.38,1.16a6.27,6.27,0,0,1-2.72-.24,3.94,3.94,0,0,1-1.19-.56c-.23-.35-.27-.3-.13.14,2.86-2.54-1.32-6.65-4.17-4.18Z" transform="translate(0 0.13)"/><path class="c" d="M2621.76,109.6c-9.28,4.64-12.18,17.7-5.63,25.82a2.59,2.59,0,0,0,2.54.67c3.24-.75,1.25-4.81.57-6.7-2.19-6.06-1.09-12.48,4.82-15.85,2.58-1.46.31-5.25-2.3-3.94Z" transform="translate(0 0.13)"/><path class="c" d="M2615.29,121.56a18.77,18.77,0,0,0-10.51,3.31c-2.37,1.71-6.14,5.37-5,8.66a1.69,1.69,0,0,0,2,1.16c2.36-.68,3.83-3.43,5.66-5a15.32,15.32,0,0,1,7.77-3.66c2.77-.37,3-4.58,0-4.5Z" transform="translate(0 0.13)"/><path class="c" d="M2608.17,189.14c15.59,4.1,24.62,18.4,33,31.22,5.39,8.2,5.83,16.33,1.08,24.93-2,3.64-4.28,7.75-7.86,10.06-4.08,2.63-9.19,2.71-13.88,2.47a57.9,57.9,0,0,1-24.12-6.74c-6.57-3.47-12.68-7.78-19.58-10.62-13.38-5.51-26-1.6-37,7.13-9.74,7.75-20.88,21-20.49,34.16a1.11,1.11,0,0,0,2.06.56c3.7-7.12,6.65-13.93,11.75-20.26a61.3,61.3,0,0,1,14.26-13c8.07-5.23,16.19-7.44,25.61-4.55,8.67,2.66,16.06,8.21,24.3,11.85,11.28,5,32,10.07,42,.09,4.86-4.81,9.12-12.57,10.23-19.32,1.18-7.14-1.4-13.65-5.3-19.5-4.92-7.37-10.16-15.09-16.15-21.64-4.92-5.38-12.1-9.87-19.66-9.21a1.22,1.22,0,0,0-.32,2.38Z" transform="translate(0 0.13)"/><path class="c" d="M2521.55,282.06c2.27-6.77,6.14-15.29,14.59-14.54,13.09,1.16,17.54,15.64,16.78,26.78-.8,11.62-8.81,19.66-13.38,29.83-1.56,3.47-2.93,6.72-1.79,10.51a37.44,37.44,0,0,0,6.67,11.75c.64.82,2-.25,1.45-1.12-2-3-4.34-6.52-5.36-10.09-1.31-4.56.75-8,3.07-11.85,3.29-5.43,8.27-9.74,11.35-15.25,5.63-10.05,4.8-23.95-1.51-33.47-4.46-6.71-12.5-12.39-20.94-10.66s-11.61,10.06-13.12,17.5a1.14,1.14,0,0,0,2.19.61Z" transform="translate(0 0.13)"/><path class="c" d="M2551.35,308.2c-2.18,4.18-4.18,8.44-.81,12.67s8.74,8.54,14,10.3c6.05,2,13.91,2.7,18.59,7.54,5,5.2,4.36,14.69,2.95,21.09-.2.89,1,1.86,1.7,1,6.7-8.55,8.22-22.54-1.71-29.3-5.08-3.46-11.24-4.65-17.14-5.88a37.9,37.9,0,0,1-10.47-3.71c-2.88-1.56-5.07-2.6-6-5.87a14.13,14.13,0,0,1,.28-7.24c.19-.82-1-1.4-1.42-.59Z" transform="translate(0 0.13)"/><path class="c" d="M2562.8,328.41c5.62,4.82,6.68,12.62,3.51,19.18-2,4.11-4.81,7.76-6.42,12.05-.31.83.9,1.48,1.47.86,8.57-9.23,15.29-24.66,2.42-33.36-.75-.51-1.68.67-1,1.27Z" transform="translate(0 0.13)"/><path class="c" d="M2610.05,258.07c-3.33-1.54-5.54-6-7.76-8.85a93.59,93.59,0,0,1-6.23-8.47c-3.53-5.86-6.42-12.71-5.68-19.7.92-8.6,7.85-10.2,15.36-9.05,6.63,1,11.51,4.36,17.28,7.37a1.18,1.18,0,0,0,1.71-1.31c-1.35-8.83-12.49-12.18-20-13.35-9-1.41-19.28-.09-23,9.45-3.46,9,1,19.37,6.39,26.62A82,82,0,0,0,2598.37,252c3.08,2.8,7,6.46,11,7.74,1,.31,1.65-1.23.7-1.67Z" transform="translate(0 0.13)"/><g class="d"><path class="c" d="M2531.55,280.51" transform="translate(0 0.13)"/></g><path class="c" d="M2649,234.79c-5.1,4.44-6.75,3.91-11.48,4a21,21,0,0,1-4.69-.42c-3.8-.82-7-3.09-8.43-5.94a15,15,0,0,0,3.11,8.32c.8,1.07,1.65,2.38,3.19,2.7,10.64,2.23,15.11-5.65,18.3-8.61" transform="translate(0 0.13)"/><path class="c" d="M2648.63,234.42c-6.4,5.14-18.7,5.35-23.33-2.57-.49-.83-2-.54-1.94.53.73,7.39,4.95,13.17,12.79,12.24,6.27-.74,9.36-5.13,13.13-9.55a.4.4,0,0,0-.56-.56c-2.76,2.25-5.1,5.12-8.29,6.8-2.59,1.35-6.63,2.33-9.48,1.21-3.61-1.42-5.17-6.7-5.51-10.14l-1.94.52c2.83,4.82,7.82,6.65,13.23,6.7s8.47-.84,12.64-4.44c.52-.44-.22-1.16-.74-.74Z" transform="translate(0 0.13)"/><path class="c" d="M2531.21,275.89" transform="translate(0 0.13)"/><path class="e" d="M2517,309.37a17.8,17.8,0,0,1,.61-11.76,19.65,19.65,0,0,1,7.63-9c2.26-1.44,4.92-2.55,6.27-4.85a10.33,10.33,0,0,0,1.06-3,37.35,37.35,0,0,0,.91-6.41l2.22,6.69a21.25,21.25,0,0,1,1.16,4.48c.47,4.93-.17,7.48-1.45,9.4-.69,1-.63,2.55-1.91,4.46-3.37,5.06-8.29,7.66-16.49,10.21" transform="translate(0 0.13)"/><path class="c" d="M2517.69,309.37c-.32-4.71.07-9.55,2.59-13.68,2.13-3.5,5.35-5.32,8.77-7.35,5.15-3.07,6.49-8.22,6.4-14l-3.62,1c1.81,4.05,3.37,9,3.05,13.47-.2,2.66-1.39,5-2.39,7.41-2.77,6.74-9.91,9.49-16.14,12.2-1.49.64-.38,2.81,1.06,2.5,7.5-1.6,15.68-4.8,19.06-12.28,1.37-3,2.67-5.76,2.73-9.15.09-5.65-2.62-10.28-3.81-15.65-.41-1.8-3.43-1.91-3.75,0-.92,5.46-1.11,9.27-6.06,12.6a26,26,0,0,0-6.8,6.21c-3.72,5.1-4.92,11.19-2.33,17.07.27.61,1.29.3,1.24-.34Z" transform="translate(0 0.13)"/><path class="e" d="M2510.64,267.83a14,14,0,0,0,1.24,5.65c1.63,3.34,3.31,6.95,2.73,10.62s-3.17,6.5-3.78,10a17.32,17.32,0,0,0,.58,6.74c.6,2.58,1.41,5.33,3.5,6.95-4.27-.17-8.19-2.42-11.48-5.14a18.72,18.72,0,0,1-5-5.86c-1.91-3.81-1.69-8.39-.5-12.49a28.67,28.67,0,0,1,12.74-16.51" transform="translate(0 0.13)"/><path class="c" d="M2508.86,267.34c-.64,3.37.12,5.82,1.48,8.89,1.26,2.82,2.3,5.55,1.44,8.68-.54,1.95-1.55,3.78-2.1,5.74-1.69,6-1,14.27,3.57,18.84l2.28-3.92c-7.77-1-16.85-8.1-16.87-16.48s5.84-15.77,12.66-20.1c1.46-.92.09-3.26-1.36-2.32-8.37,5.43-14.44,14.65-14.69,24.82-.27,10.47,9.89,18,19.64,18.69a2.37,2.37,0,0,0,1.66-4,13.4,13.4,0,0,1-3.48-12.1c.89-3.32,3.35-5.8,4-9.29,1.12-6.1-2.87-11.87-4.66-17.44-.52-1.6-3.2-1.9-3.56,0Z" transform="translate(0 0.13)"/><path class="b" d="M1185.88,166c2,14,20.21,10.52,27.88,3.6a15,15,0,0,0,4.85-7.24c.85-3.16,1.94-6.45,2.61-9.66,1-4.95.55-9.84-4.23-12.49-11.84-6.58-24.78,6-32.65,13.25a220.92,220.92,0,0,1-17.29,14.75c-2.56,1.92-5.19,4.18-8,5.63-5.65,2.87-10.13-1.88-12.65-6.44a3.9,3.9,0,0,0-5.28-1.39c-1.86,1.15-9.18-4.69-10.31-6.26a9.5,9.5,0,0,1-1.88-5.3c.27-3.35,4.14-4.14,6.79-4.76a3.74,3.74,0,0,0,2.73-3.58c-.21-3.5-.1-11.41,5.62-10.24,4.1.83,5.87-5.33,1.74-6.31-10.54-2.48-14.39,8.07-14.78,16.55l2.72-3.58c-4.85.8-10.79,3-13.9,7a12.05,12.05,0,0,0,0,15c5,6.65,18.76,16.08,25.94,7.54h-5.47c5.93,7,13.55,11.93,22.41,6.61,9.19-5.52,17.11-13.33,25.22-20.26,4.44-3.8,8.8-8.13,14-10.89,4.8-2.55,16.41-5.35,13.42,4.35-1,3.12-2.86,4.46-5.32,6.36-1.93,1.5-3.36,3.21-5.58,4.36-3.33,1.72-9.1,2.88-12.09-.38s-7,.31-6.46,3.77Z" transform="translate(0 0.13)"/><path class="b" d="M1122.13,124.18c8.49,11.94,26,16.76,36.93,5.09l-4.36,1.15c5.67,2.08,13.56-.13,18.39-3.41a18.18,18.18,0,0,0,8.08-14.79l-7.92,2.14c2.75,5.62,13.85,4.86,18.69,2.87,5.65-2.33,10-8.47,5.14-13.67a2,2,0,0,0-3,.39c-1.07,2.06-3.28,4.91-5.35,5.78-2.26,1-7.14,1.19-9.27-.21l1.92,2.51-.33-.94a4.27,4.27,0,0,0-8.34,1.13c-.34,6.78-9.28,12-15.59,9.56a4.41,4.41,0,0,0-4.36,1.15,18.77,18.77,0,0,1-13.44,6c-5.7.28-10.37-3.05-14.06-7.14-1.48-1.63-4.4.55-3.09,2.39Z" transform="translate(0 0.13)"/><path class="b" d="M1123.19,153c-8.36,9-19.15,13.09-29,3.63-3.25-3.13-7.8-3.89-11.39-6.6a20.57,20.57,0,0,1-8.3-15,21.34,21.34,0,0,1,4.88-14.72c3.47-4.16,8.35-6.32,11.36-11s4.93-9.39,8.6-13.52a52.92,52.92,0,0,1,12.8-10.38c10.38-6.13,23-9.82,35-11.15,6.45-.73,11,1.46,16.9,3.59,6.09,2.22,12.11,1.53,18.43,2,5.88.41,11.33,2.5,16.74,4.7,5.81,2.35,11.31,4.75,14.73,10.27a89.25,89.25,0,0,0,9,12.82,22.26,22.26,0,0,1,4.53,6.56c1.46,3.78-.39,6.37-.94,10-.25,1.62.05,3.53-.46,5.08-.57,1.72-2.23,3.22-3.34,4.58a74.36,74.36,0,0,0-4.93,6.66,43.5,43.5,0,0,0-6.67,16.47c-1.67,10.14,1,20.94,9.83,26.83,2.73,1.81,5-2,3.23-4.2-8.75-11.11-6.27-24.64.94-35.75,3.27-5,8.11-9,8.79-15.23s3.12-11.57.29-17.8c-2.67-5.89-8.12-9.7-11.57-15.06s-6-10-11.67-13.38c-4.83-2.83-10.42-4.8-15.71-6.59-7.4-2.51-14.16-2.2-21.81-2.61-6.87-.36-12.43-4.33-19.13-5.25s-13.87,1-20.4,2.63c-11.91,3-23.56,7.74-33.08,15.69a51,51,0,0,0-11.55,13.66c-1.59,2.74-2.8,5.84-4.88,8.27s-5.06,3.93-7.45,6.07a27.4,27.4,0,0,0-7.24,30.08,27.93,27.93,0,0,0,10.43,13c3,2,6.77,2.5,9.7,4.61,2.77,2,5,4.12,8.24,5.45,10.73,4.43,25.81-.1,27.9-12.68.26-1.56-1.61-3.06-2.88-1.68Z" transform="translate(0 0.13)"/><path class="b" d="M1084.46,112.54a55.29,55.29,0,0,1,13.39-2.83c3.76-.19,7.24,1.06,10.93,1.14,1.56,0,2.63-2.16,1.35-3.24-7.34-6.16-19.43-1.51-26.86,2.1-1.58.77-.48,3.35,1.19,2.83Z" transform="translate(0 0.13)"/><path class="b" d="M1122.94,99.55a15.94,15.94,0,0,0-10.21,3.4,16.39,16.39,0,0,0-3.52,4c-1.55,2.5-3.09,2.53-5.75,3.68-7.3,3.19-12,11-6.51,18.07l1.36-5.17c-5.32,1.6-7.3,7.05-7.94,12.16-.84,6.64,2.27,10.59,7.65,14,3.32,2.12,6.39-3.16,3.08-5.28-3.12-2-5.08-3.93-4.62-7.93.25-2.19,1-6.27,3.48-7a3.14,3.14,0,0,0,1.36-5.18c-3.11-3.65,1.61-7.48,4.51-9,1.77-.9,4.49-1.28,5.87-2.85,1.56-1.75,1.92-4.21,3.62-6a14.13,14.13,0,0,1,8-4.13c1.62-.29,1.21-2.84-.38-2.83Z" transform="translate(0 0.13)"/><path class="b" d="M1156.35,127.78c3.43,2.57,9.34,5,9.25,9.91-.09,4.36-4.23,6.55-5.12,10.52a2.35,2.35,0,0,0,2.24,2.93c6.71.37,10.69-8.68,9.8-14.38-1.21-7.72-8.39-10-15-11.87-1.84-.53-2.57,1.88-1.21,2.89Z" transform="translate(0 0.13)"/><path class="b" d="M1136.47,96.19a14.13,14.13,0,0,1,9-4.3,12.59,12.59,0,0,1,4.57.5c.52.16,2.15,1.17,3,1.11,2.74-.21,5-2.63,8.07-2.87,3.41-.27,6,1.08,9.15,2.06,2.18.68,4.07-2.38,2.29-3.94-5.69-5-14.9-3.65-20.68.47h2.33c-7.37-3.24-15.37-1.49-20.08,5.18-1,1.39,1.16,3,2.32,1.79Z" transform="translate(0 0.13)"/><path class="b" d="M1173.43,75.7c-4.73-2.08-11.44-1.53-16.13.7-4.33,2-9.14,7.9-7.52,12.84a2.46,2.46,0,0,0,4.43.58c2.15-2.85,2.64-6.53,6-8.36,3.1-1.68,8.13-2.75,11.47-1.71,2.34.73,4-3,1.7-4Z" transform="translate(0 0.13)"/><path class="b" d="M1203.63,179c-10.12-2.14-18.67-8.69-29-10.06-6-.8-17.4-.09-19.3,7.24a1.17,1.17,0,0,0,.81,1.43c3,.73,6.18-.13,9.21-.28a58.43,58.43,0,0,1,12.59,1c8.46,1.44,16.75,3.09,25.33,3.63a1.52,1.52,0,0,0,.4-3Z" transform="translate(0 0.13)"/><path class="b" d="M1206.85,179.84c-9.35-4-21-8.91-31.35-6.73-1.79.38-2.24,3.24-.53,4,4.49,2.12,9.43,2.71,14.29,3.55,5.3.91,10.61,2,15.83,3.31,2.39.58,4.24-3.13,1.76-4.18Z" transform="translate(0 0.13)"/><path class="b" d="M1181.88,173.56c-5.5-.85-11.1-2.11-16.66-2.47-3.3-.22-7.73.33-8.33,4.28a1.17,1.17,0,0,0,.79,1.39c3,1.07,6.88.4,10.1.74,4.46.46,8.93.82,13.4,1.24,2.93.27,3.64-4.73.7-5.18Z" transform="translate(0 0.13)"/><path class="b" d="M1161.66,147.29c-4,3.45-.38,8.52,3.59,9.76,3.47,1.08,10.74.44,10.62-4.54a2,2,0,0,0-1.44-1.89c-1.85-.46-3.29.46-5,.77a5.2,5.2,0,0,1-2.22-.06,9.51,9.51,0,0,0-1-.39c-1.44.29,1.87-1.41-.3.53,2.85-2.55-1.32-6.65-4.18-4.18Z" transform="translate(0 0.13)"/><path class="b" d="M1211.83,111.39c-8.27,4.1-11.15,16.07-5,23.24,1.75,2,5-.15,4.37-2.55-.85-3.06-2.35-5.7-2.06-9a9.68,9.68,0,0,1,5.05-7.74c2.57-1.48.31-5.24-2.31-4Z" transform="translate(0 0.13)"/><path class="b" d="M1206.26,121.91a16.7,16.7,0,0,0-9.75,3.15c-2.21,1.67-5.56,5.16-3.91,8.13a1.73,1.73,0,0,0,1.87.76c2.16-.3,3.78-3.21,5.4-4.54a13.88,13.88,0,0,1,7-3.08c2.54-.36,1.89-4.46-.6-4.42Z" transform="translate(0 0.13)"/><path class="b" d="M1199.83,182.33c4,1.47,8.09,3.08,11.43,5.86,3.55,2.94,6.27,6.87,9,10.54,5.43,7.31,13.85,15.8,11.7,25.71-.83,3.78-3.08,7.59-5.27,10.74-3.17,4.58-7.22,6.32-12.7,6.43-10,.2-19.19-3.2-27.71-8.21-7-4.1-14.07-8.87-22.32-9.84s-16,2.26-22.54,6.92a58.5,58.5,0,0,0-13.25,13.12c-4,5.47-8.12,13.33-7,20.3.22,1.38,2,1.27,2.7.35,4-5.64,6.49-11.95,10.93-17.41a54,54,0,0,1,14-12.23c7.67-4.63,15.21-4.92,23.47-1.56,7.16,2.91,13.53,7.44,20.8,10.14,11,4.09,28.66,7.08,36.92-3.6,3.53-4.57,6.86-10.43,7.53-16.25.8-7-2.12-12.94-6-18.51-7-10-16.87-28.19-31.71-25.62-1.72.3-1.34,2.63,0,3.12Z" transform="translate(0 0.13)"/><path class="b" d="M1124.05,263.91c2.09-5.58,5.45-12.93,12.54-12.08,11.27,1.35,14.23,14,13.31,23.46-1,9.79-7.72,17.2-11.39,26-3.15,7.53,0,13.46,4.93,19.53.88,1.09,2.68-.32,1.94-1.49-1.73-2.7-3.71-5.71-4.57-8.83-1.15-4.21,1.08-7.25,3.28-10.62,3.23-4.94,8.19-8.77,10.78-14.11,4.65-9.62,3.15-21.85-3.25-30.27-4.27-5.63-11.47-10.19-18.81-8.48-7.55,1.75-10.49,9.2-11.67,16.08a1.51,1.51,0,0,0,2.91.81Z" transform="translate(0 0.13)"/><path class="b" d="M1149.78,286.79c-1.9,3.51-3.69,7-1.24,10.75a28,28,0,0,0,11.36,9.36c5,2.11,10.59,2.49,15.34,5.41,6.46,4,6.51,13.39,5.17,20-.18.88,1,1.86,1.7,1,6.1-7.77,7.73-20-1.3-26.24-4.51-3.13-10-4.2-15.31-5.26a34.29,34.29,0,0,1-8.69-2.89c-1.86-.92-4.42-1.93-5.46-3.87s-.62-5.56-.16-7.68c.18-.82-1-1.4-1.41-.59Z" transform="translate(0 0.13)"/><path class="b" d="M1159.89,304.73a13.55,13.55,0,0,1,3.92,14.47c-1.41,4.62-4.8,8.47-6.52,13-.32.83.9,1.48,1.47.86,7.58-8.28,13.73-21.86,2.11-29.59-.76-.5-1.68.67-1,1.27Z" transform="translate(0 0.13)"/><path class="b" d="M1201.69,242.52c-3.07-1.45-5-5.65-7-8.26a68.4,68.4,0,0,1-5.14-7.21c-3.08-5.29-5.53-11.38-4.65-17.63,1-7.08,7.11-8,13.17-7,5.76.94,10,4.11,15.2,6.27a1.17,1.17,0,0,0,1.47-1.12c-.55-7.89-10.43-11.22-17-12.34-8.07-1.39-17.5-.7-21.32,7.7-3.65,8,.29,17.52,5.13,24.12,4.48,6.1,11.86,14.79,19.37,17.13,1,.3,1.65-1.22.7-1.67Z" transform="translate(0 0.13)"/><path class="b" d="M1236,222.07c-4.5,3.92-6,3.45-10.13,3.49a19,19,0,0,1-4.14-.37,10.77,10.77,0,0,1-7.43-5.25,13.17,13.17,0,0,0,2.74,7.35c.71.94,1.46,2.1,2.82,2.38,9.39,2,13.33-5,16.14-7.6" transform="translate(0 0.13)"/><path class="b" d="M1235.85,221.92c-5.82,4.77-16.93,5.1-21.19-2.18-.2-.34-.82-.22-.78.2.63,6.3,4.09,11.18,10.78,10.35,5.32-.66,8-4.5,11.45-8.1a.16.16,0,0,0-.22-.23c-2.93,2.64-5.36,6-9.32,7.16-3.28,1-7.07.93-9.21-2a13.89,13.89,0,0,1-2.27-4.71c-.58-2.28-.64-1.14.53,0,5.5,5.51,15.05,4.45,20.53-.19.21-.17-.09-.47-.3-.3Z" transform="translate(0 0.13)"/><path class="e" d="M1119.57,286.11a15.75,15.75,0,0,1,.54-10.38,17.37,17.37,0,0,1,6.73-8c2-1.27,4.34-2.25,5.54-4.28a9.24,9.24,0,0,0,.93-2.61,32.83,32.83,0,0,0,.8-5.66l2,5.9a18.07,18.07,0,0,1,1,3.95c.42,4.35-.14,6.61-1.27,8.29-.61.92-.56,2.25-1.69,3.94-3,4.47-7.31,6.76-14.54,9" transform="translate(0 0.13)"/><path class="e" d="M1119.73,286.06c-1-5.45,0-11,3.9-15.13,2.07-2.22,4.81-3.25,7.13-5.08a7.64,7.64,0,0,0,2.67-3.5,14.76,14.76,0,0,0,.81-3.35c.36-2.78-.36-2.45.43-.72a18.54,18.54,0,0,1,.23,15.68c-3,7-8.51,9.58-15.4,12a.34.34,0,0,0,.18.66c6.31-1.85,13-4.48,15.85-10.91,1.21-2.77,2.25-5.08,2.22-8.16,0-4.39-1.93-8.34-3.17-12.48a.49.49,0,0,0-.95.13c-.25,2.31-.4,5.85-1.67,8s-3.45,2.92-5.32,4.18a18.73,18.73,0,0,0-4.57,4.22,15.84,15.84,0,0,0-2.66,14.52.17.17,0,0,0,.32-.09Z" transform="translate(0 0.13)"/><path class="e" d="M1113.93,251.22a12.36,12.36,0,0,0,1.1,5c1.44,2.94,2.92,6.13,2.41,9.37s-2.8,5.73-3.33,8.85a15.2,15.2,0,0,0,.51,5.95c.53,2.27,1.24,4.7,3.08,6.13-3.76-.15-7.22-2.13-10.13-4.53a16.63,16.63,0,0,1-4.43-5.17c-1.69-3.37-1.49-7.41-.44-11a25.32,25.32,0,0,1,11.23-14.56" transform="translate(0 0.13)"/><path class="e" d="M1113.32,251.22c-.08,2.67.69,4.53,1.68,6.91,1.55,3.73,2,6.28.66,10.11-.54,1.52-1.37,2.93-1.8,4.49-1.25,4.63-.13,10.89,3.29,14.34l.55-1.34c-8.84-1.1-16.58-9.11-14.93-18.24,1.23-6.74,5.75-12.26,11.39-15.88.48-.31,0-1.09-.45-.77-7.08,4.58-12.72,12.6-12.37,21.35.32,8.29,8.62,14.37,16.36,15.11a.79.79,0,0,0,.56-1.34c-3.58-3.5-4.34-9.67-2.53-14.14.87-2.13,2.21-3.77,2.55-6.13.74-5.24-3-9.63-3.75-14.63-.11-.71-1.19-.5-1.21.16Z" transform="translate(0 0.13)"/><text class="f" transform="translate(88.72 292.04) scale(0.87 1)">S<tspan class="g" x="12.32" y="0"> </tspan><tspan x="16.71" y="0">W A</tspan><tspan class="h" x="58.44" y="0"> </tspan><tspan x="62.71" y="0">T C H E S</tspan></text><rect class="i" x="88.5" y="432.63" width="51" height="29"/><rect class="j" x="88.5" y="320.63" width="51" height="29"/><rect class="k" x="88.5" y="374.63" width="51" height="29"/><text class="l" transform="translate(156.99 397.06)">#92ff03</text><text class="l" transform="translate(156.99 343.06)">#f7f7f7</text><text class="l" transform="translate(156.99 456.06)">#92ff03</text></svg>