<svg xmlns="http://www.w3.org/2000/svg" viewBox="0 0 2752 768.25"><defs><style>.a,.c,.j{fill:#2b2b2b;}.a,.h{stroke:#2b2b2b;}.a,.h,.i,.j{stroke-miterlimit:10;}.a{stroke-width:0.25px;}.b,.h{fill:#f7f7f7;}.d,.i{fill:#92ff03;}.e{font-size:24.99px;}.e,.k{font-family:MyriadPro-Regular, Myriad Pro;}.f{letter-spacing:-0.04em;}.g{letter-spacing:-0.04em;}.i{stroke:#92ff03;stroke-width:0.5px;}.j{stroke:#000;}.k{font-size:21px;}</style></defs><title>growers_brain-logo_AXON</title><rect class="a" x="952" y="0.13" width="414" height="768"/><rect class="b" y="0.13" width="952" height="768"/><rect class="b" x="2338" y="0.13" width="414" height="768"/><rect class="a" x="1386" y="0.13" width="952" height="768"/><path class="c" d="M532.22,474.17c21.42-15.31,44.37-33.36,52.84-59.38,7.5-23,2.13-48-12.56-66.93a76.24,76.24,0,0,0-25.87-21.56c-11.72-5.87-24.18-7.69-37.2-7.51-15.11.21-29.75,1.29-44.4-3.31a86.05,86.05,0,0,1-33.71-20c-23.42-22.53-31.18-57.69-21.3-88.39.42-1.3-1.52-1.76-2-.55a87,87,0,0,0,5.06,75c12,21.1,33.31,36.38,56.92,41.74,14.32,3.25,28.7,1.66,43.22,1.7,13.38,0,25.77,3,37.16,10.14,20.13,12.62,34.24,35.54,33.84,59.6-.57,34.48-27.55,58.41-53.31,77.24-1.34,1-.06,3.23,1.31,2.25Z" transform="translate(0 0.13)"/><path class="d" d="M452.66,153.91c4.86-1.57,9.52-4.91,10.95-9.81,1.87-6.37-2.76-13.46-9-15.59s-13.45,0-18.65,4.11a10.64,10.64,0,0,0-2.75,3.15c-.84,1.55-2.13,4.65-2.17,6.23-.07,2.85-.31,3.1.18,6.13.38,2.4,2.73,3.75,4.75,4.78A22.29,22.29,0,0,0,452.66,153.91Z" transform="translate(0 0.13)"/><path class="c" d="M453,155c8.41-2.8,15.46-10,11.46-19.35s-15.13-11.57-23.87-7.77c-7.84,3.41-13.52,11.85-11,20.68s16.9,9.74,23.44,5.91a.67.67,0,0,0-.34-1.24c-5.62.17-17.48,1.44-19.87-5.56-2.06-6.08,2.11-12.93,7.19-15.75,6.6-3.66,15.8-3.91,20.42,3,5.07,7.59-.69,15-8,17.85C451,153.33,451.55,155.49,453,155Z" transform="translate(0 0.13)"/><path class="c" d="M408,208.71l9.25-14.83c3.35-5.37,6.32-10.63,12.56-13,11.17-4.26,24.12,1,34.15,6s15.43,14.92,15.52,26c.1,12.43-6,23.84-12,34.32a.56.56,0,0,0,1,.57c6.7-11.27,13.29-23.59,12.66-37.1-.53-11.23-5.73-20.74-15.93-25.84-10.7-5.35-24-10.75-35.92-6.13a21.52,21.52,0,0,0-10.58,9c-4.14,6.57-7.45,13.8-11.11,20.65a.27.27,0,0,0,.46.27Z" transform="translate(0 0.13)"/><path class="c" d="M503.79,220.65c-9.29-4.25-17.87-10.68-23.36-19.39-6.13-9.72-12.79-23.23-6.19-34.14,2.81-4.64,6.59-7.79,11-10.87,5.37-3.76,10.57-4.66,17-4.79,12-.23,24,1.78,33.15,10.08.43.39,1.05-.22.64-.63-9.23-9.15-22.11-11.75-34.72-11.46-6.74.16-11.52,1.2-17.17,5-4.36,2.91-9.37,6.1-12.6,10.3-7.83,10.2-.5,25.14,5.53,34.46a55.59,55.59,0,0,0,26.43,22.1c.36.14.62-.47.27-.63Z" transform="translate(0 0.13)"/><path class="c" d="M516.16,98.1A55.14,55.14,0,0,0,490.47,111c-6.13,5.42-14.75,13.46-14.05,22.42.71,9.19,10.63,13.26,18.53,14.75,9.5,1.8,18.93,1,27.52-3.54,1.69-.89.21-3.24-1.46-2.51-7.26,3.19-15.72,4.67-23.52,2.81s-17.81-6.4-16-15.94c2.9-15.52,21.4-25.4,35.1-29.43a.76.76,0,0,0-.41-1.47Z" transform="translate(0 0.13)"/><path class="c" d="M513.92,146.48c8.14-1.29,15.93-4.71,21.64-10.8.35-.38-.17-.85-.55-.55-6.45,5-13.27,8.8-21.33,10.5-.56.12-.31.93.24.85Z" transform="translate(0 0.13)"/><path class="c" d="M420.32,63.21c-7.18,7.74-4.21,18.19-1.08,27.06a25.88,25.88,0,0,0,21.37,17.06c10.21,1,20.13-5.69,26.21-13.35a34.34,34.34,0,0,0,6.63-28.91c-.23-1-2-.82-1.86.25,2.43,18.57-8,34.21-26.49,38a21,21,0,0,1-24.26-12.77c-3.39-8.45-6.73-19,.19-26.67.43-.48-.27-1.18-.71-.71Z" transform="translate(0 0.13)"/><path class="c" d="M487.39,70.36c-10.81,4.75-32.05,23.26-19.2,35.93,10.77,10.63,31.94,2.29,38.66-9.05.2-.35-.31-.78-.58-.45-7.66,9.34-24.46,18.41-34.89,7.29-5.08-5.42-2.32-14.9,1.13-20.56s9.34-9.81,15.23-12.57c.4-.19.05-.76-.35-.59Z" transform="translate(0 0.13)"/><path class="c" d="M502,103.07c5.11-4.63,9.82-10.89,11-17.84a.32.32,0,0,0-.61-.17c-2.74,6.68-5.43,12.54-10.74,17.61-.27.25.13.64.39.4Z" transform="translate(0 0.13)"/><path class="c" d="M396.56,79.74c8.35,2.38,16.88,5.13,22,12.69,5.76,8.52,4.41,19.83-4.13,25.85-7,4.93-17.83,5.35-25.88,3.34-8.47-2.11-15.91-7.12-22-13.26-.46-.46-1.12.23-.71.71,11.65,13.55,40.49,27,54.22,9.49,5.8-7.37,7-18.26,1.92-26.33-5.28-8.39-16.2-11.09-25.25-13.1a.32.32,0,0,0-.16.61Z" transform="translate(0 0.13)"/><path class="c" d="M353.08,130.89A121.23,121.23,0,0,1,385.47,128c5.52.33,11.83,1.12,15.72,5.56,5.06,5.79,1.2,12.59-2.91,17.51-13,15.52-34.29,14.62-52.56,16.27a.79.79,0,0,0,0,1.58c12.6,1.12,25.85.71,37.76-4,8.61-3.42,18-9.72,21.33-18.82,10-27.36-39.54-19.51-52-16.16a.5.5,0,0,0,.27,1Z" transform="translate(0 0.13)"/><path class="c" d="M357.93,194.62c10.32-14.26,23.11-31,42.27-32.12,4.79-.29,11.55-.05,14.23,4.7s.84,10.93-.21,15.8c-.93,4.3-2,8.57-3.27,12.79-1.43,4.78-3.6,9.46-4.52,14.36a.73.73,0,0,0,1.32.56c3.18-4.7,4.78-10.6,6.46-16a111,111,0,0,0,4.45-18.39c1.25-9.43-3.46-15.55-12.86-16.33-22.33-1.84-37.91,17.31-48.39,34.3-.2.33.3.6.52.3Z" transform="translate(0 0.13)"/><path class="c" d="M548.5,462c16.35-11.06,38.72-11.06,56.43-3.22,19.73,8.74,31.28,26.8,27.9,48.59C631,519.1,626.1,529.6,619.69,539.5,613.5,549,606.17,558.4,596.8,565s-20.49,11-30.31,17.22c-9.59,6.06-17.36,13.65-22.43,23.89-9.56,19.29-8.56,45.31,5.08,62.5.19.24.58-.07.42-.32-12.82-19.76-13.65-49.6,2.73-67.81,8.39-9.32,19.88-14.3,31-19.48,10.91-5.07,21.15-11.26,29.3-20.24,14.82-16.34,27.09-40,26.87-62.57-.19-20.07-13.11-36.32-31.09-44.21-19.73-8.67-43.9-7.89-61.64,5-1.79,1.29-.13,4.27,1.75,3Z" transform="translate(0 0.13)"/><path class="c" d="M586.81,577c-8.65,6.17-15.64,16.41-14.61,27.44,1.14,12.26,11.67,20.95,20.81,27.83,11.23,8.45,23.79,17,28.94,30.75,4.56,12.13,1.9,28.1-9.39,35.68a2,2,0,0,0,2,3.37c10.16-4.81,15.57-15.82,16.27-26.68.79-12.37-6-24.33-14.54-32.8-9.87-9.81-22.81-16-32.56-25.86-11.79-12-9-28.84,3.65-39,.39-.32-.13-1-.54-.71Z" transform="translate(0 0.13)"/><path class="c" d="M601,634.22c-3.25,5.16-1.29,10.92-1.63,16.53-.56,9.3-6.49,17.46-13.33,23.33-11.93,10.23-27.81,16-36.22,30-.22.38.33.84.63.48,10.79-13.16,27.11-18.79,39-30.59,5.07-5,9.19-11.31,10.77-18.35,1.52-6.76-1.93-14.65,1.76-20.82.37-.61-.58-1.16-1-.56Z" transform="translate(0 0.13)"/><path class="c" d="M354.24,598.1c20.53,13.68,44.09,17.54,68.58,20.1a109.44,109.44,0,0,0,20.06.73c8.31-.67,16.39-3,24.4-5.37,8.89-2.6,17.82-5.22,26.2-9.2,17.71-8.41,32.26-22.68,43.2-39s18.47-34.8,24.59-53.54c3.57-10.95,6.71-22.48,5-33.87-8.52,23.17-28.46,39.91-48.24,54.52-8.56,6.33-17.94,12.72-28.56,13-5.75.18-11.38-1.47-17.06-2.41-9-1.47-18.11-1.19-27.18-.9-13.11.42-26.4.87-39,4.7-24.06,7.34-45.31,26.84-52,51.24" transform="translate(0 0.13)"/><path class="c" d="M354.17,598.22c16,10.77,34.3,16,53.22,18.81,9.6,1.45,19.39,2.84,29.11,2.94,10.68.1,20.83-2.61,31-5.56C486.13,609,503.13,602.2,517.64,589c14-12.73,24.41-28.82,32.35-45.87A274.72,274.72,0,0,0,562,512c3.61-11.06,6.54-22.36,5-34.07a.79.79,0,0,0-1.55-.21c-6.4,16.81-18.55,30.22-32.12,41.69-14.15,12-31.43,27.82-51.31,24.66-9.5-1.5-18.4-3-28.09-2.89s-19.65.37-29.38,1.42c-16,1.72-31,6.89-43.93,16.72a75.33,75.33,0,0,0-27,38.66.53.53,0,0,0,1,.28c4.57-16.13,15.34-30,29-39.53,15.58-10.94,33.37-14.55,52.12-15.43,9.89-.46,19.93-1,29.81-.21,9.08.72,18.17,4.28,27.34,2.91,8.45-1.25,15.91-6,22.72-10.84,6.44-4.62,12.76-9.48,18.81-14.61,13.78-11.69,26-25.32,32.5-42.41l-1.55-.21c1.32,10.31-.83,20.35-3.86,30.18a276.41,276.41,0,0,1-10.45,28.48c-7.29,16.86-16.75,32.95-29.6,46.18-13.36,13.77-29.19,22.27-47.42,27.84-10.17,3.12-20.6,6.63-31.27,7.49-9.5.77-19.14-.47-28.56-1.59-21-2.48-41.93-7-60-18.5-.14-.09-.27.13-.13.23Z" transform="translate(0 0.13)"/><path class="c" d="M354.68,600.14c-1.11-20.93,4.34-42.86,16.41-60.12a98.19,98.19,0,0,1,50.32-36.87c21.65-6.88,45.7-6.3,65.93-16.54,19.41-9.84,32.76-28.5,41.77-48.08-15.9-3.29-29.78-12.86-45.43-17.17-25.25-7-52,.38-77.17,7.69-6.13,1.78-12.31,3.58-18,6.46-6.15,3.11-11.59,7.4-16.88,11.78-12.21,10.1-24.2,21.26-30.67,35.61-8,17.68-6.61,37.93-4.58,57.17,2.22,21,4.35,44,18.31,60.07" transform="translate(0 0.13)"/><path class="b" d="M1908.88,471.29c21.79-15.41,45.43-33.59,54.16-60,7.8-23.54,2.42-49.52-12.49-69.06-16-20.91-39.09-30.89-65.12-30.59-14.85.18-29.18,1.32-43.57-3.19a84,84,0,0,1-32.42-19.17c-22.92-21.76-31-55.86-22.42-86,.62-2.19-2.82-3.79-3.79-1.59a86.63,86.63,0,0,0,2.69,75.74c12,22.66,34.34,39.09,59.26,44.74,14.6,3.32,29.24,1.82,44,1.79,12.35,0,23.84,2.49,34.52,8.83,20.11,12,34.6,34.06,34.33,57.84-.39,33.76-26.68,57.54-51.82,76.12-2.65,1.95-.13,6.44,2.63,4.49Z" transform="translate(0 0.13)"/><path class="d" d="M1828.66,149.91c4.86-1.57,9.52-4.91,10.95-9.81,1.87-6.37-2.76-13.46-9-15.59s-13.45,0-18.65,4.11a10.64,10.64,0,0,0-2.75,3.15c-.84,1.55-2.13,4.65-2.17,6.23-.07,2.85-.31,3.1.18,6.13.38,2.4,2.73,3.75,4.75,4.78A22.29,22.29,0,0,0,1828.66,149.91Z" transform="translate(0 0.13)"/><path class="b" d="M1784.27,204.84l9.77-14.52c3.36-5,6.15-10.13,12.11-12.39,10.82-4.09,23.55,1.16,33.25,6,9.54,4.76,15.13,14.35,15.29,25,.19,12.3-5.79,23.63-11.69,34a1.13,1.13,0,0,0,1.94,1.14c6.87-11.36,13.5-23.7,13-37.38-.41-11.69-5.5-21.53-16.16-26.86-11-5.53-24.59-10.94-36.82-6.17s-16.36,19.89-21.61,30.63a.53.53,0,0,0,.91.53Z" transform="translate(0 0.13)"/><path class="b" d="M1879.85,216.55c-9.18-4.31-17.84-10.7-23.19-19.43-6-9.79-12.32-22.77-5.9-33.7,2.73-4.63,6.28-7.79,10.65-10.86,5.32-3.75,10.45-4.63,16.85-4.76,11.9-.23,23.9,1.65,33,9.85.57.51,1.39-.3.84-.85-9.19-9.25-22.15-12-34.82-11.69-6.8.15-11.63,1.22-17.34,5-4.43,2.93-9.64,6.09-12.94,10.32-8,10.21-.39,25.62,5.77,34.9,6.59,9.92,15.5,17.84,26.67,22.06.48.18.82-.62.36-.84Z" transform="translate(0 0.13)"/><path class="b" d="M1892.09,93.85a54.06,54.06,0,0,0-25.9,12.88,104.55,104.55,0,0,0-10.47,11,16.73,16.73,0,0,0-4.06,12.1c1,9.43,10.87,13.53,19.13,15,9.68,1.69,19.22,1,27.93-3.75,2.24-1.22.27-4.28-2-3.34-7.1,3-15.52,4.56-23.1,2.64s-17-6.2-15.46-15.25c2.59-15.51,20.9-25.09,34.44-29.28a1,1,0,0,0-.55-2Z" transform="translate(0 0.13)"/><path class="b" d="M1889.8,142.93c8.24-1.09,16.68-4.29,22-11,.5-.63-.14-1.74-.94-1.22-6.78,4.45-13.31,8.58-21.33,10.48-.94.22-.76,1.85.24,1.72Z" transform="translate(0 0.13)"/><path class="b" d="M1796.2,59.09c-7.25,7.79-4.3,18.28-1.19,27.25a26.86,26.86,0,0,0,21.45,17.55c10.45,1.36,20.5-5.82,26.67-13.6a34.34,34.34,0,0,0,6.63-29.3c-.33-1.35-2.66-1.11-2.49.33,1,8.5-.22,17.13-5,24.36-5,7.4-12.79,11.2-21.29,13.06-10.21,2.24-19.91-2.52-23.86-12.21-3.41-8.36-6.77-18.88.08-26.49.57-.64-.36-1.58-1-.95Z" transform="translate(0 0.13)"/><path class="b" d="M1863.33,66.26c-11,4.77-33.11,23.65-19.6,36.49,10.91,10.36,32.67,2.28,39.22-9.45.27-.47-.39-1-.77-.6-4.33,5-9,9.33-15.57,11.12-6.18,1.68-14.3.83-18.78-4.19s-2.28-14.55.87-20c3.29-5.67,9.3-9.84,15.09-12.59.54-.25.07-1-.46-.79Z" transform="translate(0 0.13)"/><path class="b" d="M1878.15,99.27c5-4.43,10.76-11.11,11.09-18.12a.64.64,0,0,0-1.18-.32c-1.61,2.89-2.54,6.11-4.07,9a34.82,34.82,0,0,1-6.63,8.59c-.52.51.25,1.27.79.8Z" transform="translate(0 0.13)"/><path class="b" d="M1772.53,75.84c8.32,2.47,16.57,5.26,21.58,12.83,5.52,8.34,4.39,19.22-4.08,25-6.81,4.62-17.57,5.44-25.41,3.63-8.45-2-15.89-7-22-13-.62-.61-1.49.3-1,1,7,8.28,16.37,13.2,26.55,16.39,10.55,3.3,21.08,2.74,28.26-6.56,5.83-7.55,7.14-18.84,1.89-27-5.36-8.39-16.56-11-25.66-12.94a.42.42,0,0,0-.22.81Z" transform="translate(0 0.13)"/><path class="b" d="M1729.12,127.05c10.63-2.15,21.49-3.5,32.35-2.76,5.42.36,11.66,1.13,15.47,5.52,4.9,5.66,1,12.14-3,16.9-12.94,15.51-34.06,14.19-52.2,16.37a1.06,1.06,0,0,0,0,2.11c12.59,1.49,26,1,37.9-3.79,8.74-3.47,18.39-9.87,21.63-19.19,9.68-27.85-39.57-20-52.48-16.44a.66.66,0,0,0,.35,1.28Z" transform="translate(0 0.13)"/><path class="b" d="M1734.09,190.89c10.55-13.5,23.37-30.42,42.11-31.18,4.18-.17,10.7,0,12.91,4.26,2.38,4.59.43,10.82-.58,15.54s-2.11,9.2-3.46,13.72c-1.27,4.27-3.52,8.61-3.39,13.11a1.46,1.46,0,0,0,2.46,1c3.95-3.75,5.47-10.33,7.14-15.35a112.84,112.84,0,0,0,4.88-19c1.49-10-3.36-17.27-13.56-18.2-23-2.11-39.31,17.5-49.45,35.38-.32.57.51,1.28.94.73Z" transform="translate(0 0.13)"/><path class="b" d="M1924.79,458.47c16.15-10.79,38.26-10.63,55.66-2.89,19.27,8.58,30.68,26.13,27.42,47.5-1.79,11.76-6.7,22-13.19,31.84-6.15,9.31-13.3,18.52-22.5,25-9.49,6.72-20.46,11.06-30.21,17.4s-17.35,14-22.41,24.49c-9.39,19.4-8.5,45.76,5.52,62.85.25.31.76-.09.55-.42-12.32-19.69-13.5-49.42,3.16-67.27,8.51-9.12,20-13.89,31.12-18.94s21.41-11.36,29.57-20.41a107.66,107.66,0,0,0,19-30.29c4.5-10.53,8.07-21.58,8-33.15-.18-20.41-13.29-37-31.6-45-20.05-8.77-44.48-7.85-62.43,5.3-2.36,1.73-.18,5.69,2.34,4Z" transform="translate(0 0.13)"/><path class="b" d="M1962.73,572.89c-8.79,6.14-16.07,16.41-15.22,27.57,1,12.59,11.62,21.67,21,28.74,11,8.29,23.32,16.74,28.38,30.14,4.41,11.68,2.07,27.25-8.63,34.82a2.6,2.6,0,0,0,2.63,4.49c10.61-4.71,16.23-16.08,17.05-27.24.92-12.61-6.16-25-14.85-33.59-9.92-9.8-22.84-15.94-32.72-25.72-11.7-11.58-9.16-28.15,3.12-38.27.52-.42-.17-1.32-.73-.94Z" transform="translate(0 0.13)"/><path class="b" d="M1976.86,630.13c-3.29,5.18-1.35,11-1.72,16.62-.6,9.22-6.54,17.28-13.35,23.06-11.93,10.14-28,16-36.06,30.19-.29.5.43,1.1.83.63,11.08-12.85,27.33-18.57,39.15-30.42,5.07-5.09,9.21-11.45,10.77-18.54,1.47-6.72-2-14.66,1.66-20.8a.74.74,0,0,0-1.28-.74Z" transform="translate(0 0.13)"/><path class="b" d="M1730.24,594.1c20.53,13.68,44.09,17.54,68.58,20.1a109.44,109.44,0,0,0,20.06.73c8.31-.67,16.39-3,24.4-5.37,8.89-2.6,17.82-5.22,26.2-9.2,17.71-8.41,32.26-22.68,43.2-39s18.47-34.8,24.59-53.54c3.57-10.95,6.71-22.48,5-33.87-8.52,23.17-28.46,39.91-48.24,54.52-8.56,6.33-17.94,12.72-28.56,13-5.75.18-11.38-1.47-17.06-2.41-9-1.47-18.11-1.19-27.18-.9-13.11.42-26.4.87-39,4.7-24.06,7.34-45.31,26.84-52,51.24" transform="translate(0 0.13)"/><path class="b" d="M1730.68,596.14c-1.11-20.93,4.34-42.86,16.41-60.12a98.19,98.19,0,0,1,50.32-36.87c21.65-6.88,45.7-6.3,65.93-16.54,19.41-9.84,32.76-28.5,41.77-48.08-15.9-3.29-29.78-12.86-45.43-17.17-25.25-7-52,.38-77.17,7.69-6.13,1.78-12.31,3.58-18,6.46-6.15,3.11-11.59,7.4-16.88,11.78-12.21,10.1-24.2,21.26-30.67,35.61-8,17.68-6.61,37.93-4.58,57.17,2.22,21,4.35,44,18.31,60.07" transform="translate(0 0.13)"/><path class="b" d="M1209.89,423.07c11.11-7.87,22.89-17.33,24.66-31.76,1.52-12.44-5-25.07-15.34-31.88-13.35-8.73-29.43-1.45-43.22-8.62-15.41-8-22.3-25.6-18-42.2.28-1.09-1.41-1.91-1.9-.8a37.16,37.16,0,0,0,4.44,38c8.3,10.68,21,15.19,34.2,14.86,7.76-.2,14.74-.41,21.6,3.73a30,30,0,0,1,13.06,16.39c5.34,17.13-8.31,30.72-20.77,40-1.32,1-.07,3.23,1.31,2.25Z" transform="translate(0 0.13)"/><path class="d" d="M1175.57,285.77a6.84,6.84,0,0,0,4.67-4.19c.8-2.71-1.18-5.74-3.86-6.65a8.69,8.69,0,0,0-8,1.75,4.58,4.58,0,0,0-1.17,1.35,8.22,8.22,0,0,0-.93,2.66,9.61,9.61,0,0,0,.08,2.61c.16,1,1.17,1.61,2,2A9.5,9.5,0,0,0,1175.57,285.77Z" transform="translate(0 0.13)"/><path class="b" d="M1156.66,309.23c2.48-3.61,5.57-10.16,9.93-11.54s10,.76,13.76,2.91c9.88,5.67,5.63,17,1.26,24.83a.57.57,0,0,0,1,.57c5-8.24,9.89-21.53-1-27.44-4.55-2.46-10.4-4.72-15.56-3-5.69,1.88-7.47,8.54-9.79,13.42a.27.27,0,0,0,.46.27Z" transform="translate(0 0.13)"/><path class="b" d="M1197.42,314.18c-7-3.51-17.26-13.94-12.25-22.59s18.51-8.43,25.63-2.49c.29.25.71-.15.42-.42-7.28-7-21.83-7.35-28,1.57-3,4.25-.5,9.7,1.82,13.68a24.61,24.61,0,0,0,12.24,10.67c.24.09.4-.31.17-.42Z" transform="translate(0 0.13)"/><path class="b" d="M1202.61,261.78a23.14,23.14,0,0,0-11.92,6.24c-2.54,2.47-6,5.46-5.53,9.39,1.08,8.38,15.07,7.54,20.37,4.7,1-.5.29-2.17-.74-1.76a17.34,17.34,0,0,1-8.61,1.39c-3.57-.47-8.78-2.76-7.62-7.32,1.57-6.21,8.76-9.81,14.32-11.66a.51.51,0,0,0-.27-1Z" transform="translate(0 0.13)"/><path class="b" d="M1201.65,283.3c3.59-.23,8.12-1.5,9.84-5,.26-.54-.19-1.39-.87-1.13-3.19,1.2-5.9,3.42-9.2,4.44-.91.28-.79,1.79.23,1.73Z" transform="translate(0 0.13)"/><path class="b" d="M1161.68,247c-5.39,6.46.35,17.21,7.77,19.1,9.82,2.49,17-10,15.21-18.28a.64.64,0,0,0-1.25.17c.56,7.75-3,13.89-10.81,15.69-3.91.91-6.72-.05-9.06-3.22-2.65-3.58-4.6-9-1.39-13,.27-.33-.19-.81-.47-.48Z" transform="translate(0 0.13)"/><path class="b" d="M1190.34,250.05c-4.83,2.14-14.61,10.42-8.26,15.93,4.85,4.2,13.82.53,16.68-4.35.14-.23-.19-.51-.38-.3-3.21,3.68-9.76,7.66-14.11,3.12-4.73-4.94,1.91-11.85,6.31-14,.26-.13,0-.51-.24-.39Z" transform="translate(0 0.13)"/><path class="b" d="M1196.91,264.39a23.13,23.13,0,0,0,3.57-3.89c.91-1.18,1.73-2.71,1.28-4.24a.64.64,0,0,0-1.06-.28,8,8,0,0,0-1.81,3.48,11.88,11.88,0,0,1-2.77,4.13.56.56,0,0,0,.79.8Z" transform="translate(0 0.13)"/><path class="b" d="M1151.61,254.2c2.92.9,5.9,1.79,8,4.14,3.63,4.05,3.2,10.28-2.12,12.46-6.8,2.79-13.51.27-18.59-4.55a.33.33,0,0,0-.47.47c5.11,5.84,17.82,12.38,23.66,4.17a10.63,10.63,0,0,0,1.08-10.88c-2.14-4.16-7.25-5.34-11.45-6.22a.21.21,0,0,0-.11.41Z" transform="translate(0 0.13)"/><path class="b" d="M1133.11,276.06a61.39,61.39,0,0,1,10.29-1.23c1.49,0,5.64-.18,6.69.54l3,7.61a10.4,10.4,0,0,1-2.68,3c-5.67,4.86-13.43,4.56-20.45,5.37a.53.53,0,0,0,0,1.06c7.87.87,25.3-.46,25.92-11.73.57-10.4-17.31-6.76-22.92-5.22a.33.33,0,0,0,.18.64Z" transform="translate(0 0.13)"/><path class="b" d="M1135.25,303.29c4.46-5.52,9.62-12.45,17.29-13.05a9.12,9.12,0,0,1,4,.25l2.06,5.88c.06,1.38-.75,3.68-1.08,5-.71,2.84-1.9,5.53-2.12,8.46a.73.73,0,0,0,1.23.51c3.76-4.55,9.87-20.52.64-22.53-10.23-2.24-18.19,7.3-22.51,15.09-.16.29.24.64.47.37Z" transform="translate(0 0.13)"/><path class="b" d="M1216.67,417.58c9.14-5.85,23-4.2,30.6,3.68,10,10.48,2.25,26-6,34.9-8.09,8.77-21.31,10.63-26.9,22-4.19,8.51-3.8,19.75,2.29,27.3.13.16.38-.05.28-.21A25.88,25.88,0,0,1,1214.3,484c2.68-8.35,9.55-11.64,17-15,12.2-5.57,20.21-15.62,23.68-28.6,2.85-10.67-.79-21-10.71-26.26-9-4.81-20.35-4.52-28.73,1.46-1.19.85-.1,2.82,1.17,2Z" transform="translate(0 0.13)"/><path class="b" d="M1232.75,466.22c-7.63,5.59-8.61,14.15-1.77,20.89,4.36,4.28,10,7.08,13.69,12.06,4.29,5.77,4.59,14.11-1.37,18.87-1.23,1,.33,2.63,1.57,2,8.87-4.19,9.08-15.59,4-22.83-3-4.33-7.39-7.26-11.61-10.29-3.12-2.22-6.88-4.58-8.21-8.42-1.56-4.51.72-8.9,4-11.85.25-.22-.09-.67-.37-.47Z" transform="translate(0 0.13)"/><path class="b" d="M1238.76,490.65c-.92,1.74-.8,3.24-.84,5.16-.11,5.17-2.12,8.8-6.16,12.11-5.1,4.18-11.3,6.71-14.81,12.55a.27.27,0,0,0,.42.32c5.16-5.63,12.8-8.18,17.73-14a16.3,16.3,0,0,0,3.56-6.67c.71-3-.67-6.2.74-9.11.2-.43-.42-.8-.64-.38Z" transform="translate(0 0.13)"/><path class="b" d="M1133.57,475.31c8.76,5.83,18.81,7.48,29.26,8.57a46.27,46.27,0,0,0,8.56.31,51.78,51.78,0,0,0,10.41-2.29A74,74,0,0,0,1193,478c7.56-3.59,13.77-9.68,18.44-16.66s7.88-14.85,10.49-22.85c1.52-4.67,2.87-9.59,2.13-14.45-3.63,9.89-12.14,17-20.58,23.27-3.65,2.7-7.66,5.42-12.19,5.56-2.45.08-4.85-.63-7.28-1a59,59,0,0,0-11.59-.38c-5.6.18-11.27.37-16.62,2-10.27,3.14-19.34,11.46-22.21,21.87" transform="translate(0 0.13)"/><path class="b" d="M1133.76,476.18a41.41,41.41,0,0,1,7-25.65,41.93,41.93,0,0,1,21.47-15.74c9.24-2.93,19.5-2.69,28.13-7.06,8.29-4.19,14-12.16,17.83-20.51-6.79-1.41-12.71-5.49-19.39-7.33-10.77-3-22.2.17-32.92,3.28a44,44,0,0,0-7.69,2.76,39.82,39.82,0,0,0-7.21,5c-5.2,4.31-10.32,9.07-13.08,15.19-3.4,7.54-2.82,16.19-2,24.4,1,9,1.86,18.77,7.82,25.63" transform="translate(0 0.13)"/><path class="c" d="M2585.89,405.07c11.11-7.87,22.89-17.33,24.66-31.76,1.52-12.44-5-25.07-15.34-31.88-13.35-8.73-29.43-1.45-43.22-8.62-15.41-8-22.3-25.6-18-42.2.28-1.09-1.41-1.91-1.9-.8a37.16,37.16,0,0,0,4.44,38c8.3,10.68,21,15.19,34.2,14.86,7.76-.2,14.74-.41,21.6,3.73a30,30,0,0,1,13.06,16.39c5.34,17.13-8.31,30.72-20.77,40-1.32,1-.07,3.23,1.31,2.25Z" transform="translate(0 0.13)"/><path class="d" d="M2551.57,267.77a6.84,6.84,0,0,0,4.67-4.19c.8-2.71-1.18-5.74-3.86-6.65a8.69,8.69,0,0,0-8,1.75,4.58,4.58,0,0,0-1.17,1.35,8.22,8.22,0,0,0-.93,2.66,9.61,9.61,0,0,0,.08,2.61c.16,1,1.17,1.61,2,2A9.5,9.5,0,0,0,2551.57,267.77Z" transform="translate(0 0.13)"/><path class="c" d="M2551.87,268.87c4-1.26,7.43-4.53,5.61-9.06s-7.21-5.87-11.52-4c-3.84,1.67-6.55,6-5.05,10.28,1.38,3.86,8.57,5.29,11.13,2.14a.67.67,0,0,0-.3-1.11c-2.12-.79-5.42.06-7.12-1.59-1.88-1.82.05-5.05,1.71-6.12,2.23-1.45,5.55-1.82,7.46.37,2.47,2.83-.05,5.8-2.8,7C2549.8,267.3,2550.65,269.26,2551.87,268.87Z" transform="translate(0 0.13)"/><path class="c" d="M2532.66,291.23c2.48-3.61,5.57-10.16,9.93-11.54s10,.76,13.76,2.91c9.88,5.67,5.63,17,1.26,24.83a.57.57,0,0,0,1,.57c4.95-8.24,9.89-21.53-1-27.44-4.55-2.46-10.4-4.72-15.56-3-5.69,1.88-7.47,8.54-9.79,13.42a.27.27,0,0,0,.46.27Z" transform="translate(0 0.13)"/><path class="c" d="M2573.48,296.08c-7-3.72-16.53-13.49-11.79-22.19s17.95-8.38,25-2.68c.43.35,1.05-.22.63-.64-7.56-7.46-21.79-7.26-28.62,1.32-3.32,4.17-.37,10.33,2,14.22a24.89,24.89,0,0,0,12.5,10.6c.36.13.6-.45.26-.63Z" transform="translate(0 0.13)"/><path class="c" d="M2578.55,243.53a22.26,22.26,0,0,0-12.14,6.21c-2.74,2.67-6.58,5.46-6,9.78,1.1,8.89,15.75,8.24,21.41,5,1.38-.79.46-3.23-1.12-2.65a17.57,17.57,0,0,1-8.4,1.3c-3.25-.49-7.75-2.63-7-6.58,1.13-6.21,8.4-9.62,13.72-11.59a.77.77,0,0,0-.4-1.48Z" transform="translate(0 0.13)"/><path class="c" d="M2577.65,264.86c3.58-.45,7.26-1.82,9.51-4.79.24-.32-.22-.72-.53-.53-2.94,1.81-5.68,3.61-9.09,4.45-.47.12-.39.93.11.87Z" transform="translate(0 0.13)"/><path class="c" d="M2537.56,228.87c-5.6,6.62.37,17.42,7.76,19.7,10,3.08,17.79-10.51,15.64-18.85a1,1,0,0,0-1.86.25c.28,7.82-2.93,13.16-10.68,15.07-3.32.81-6.05.47-8.42-2.12-2.94-3.21-4.71-9.59-1.73-13.35.4-.49-.28-1.2-.71-.7Z" transform="translate(0 0.13)"/><path class="c" d="M2566.29,232c-5.08,2.19-15.68,10.71-8.66,16.48,4.94,4,14.52.44,17.24-4.74.19-.36-.28-.76-.58-.44-3.21,3.34-9.75,7.73-13.75,2.64-1.75-2.23-1-5.63.16-8,1.21-2.54,3.46-4.11,5.93-5.36.4-.2,0-.76-.34-.59Z" transform="translate(0 0.13)"/><path class="c" d="M2572.71,246.19c2.13-1.86,4.73-4.77,4.75-7.76a.32.32,0,0,0-.59-.16c-.73,1.21-1.11,2.6-1.75,3.85a14.53,14.53,0,0,1-2.8,3.67.28.28,0,0,0,.39.4Z" transform="translate(0 0.13)"/><path class="c" d="M2527.58,236.3c3.68,1.23,7.26,2.64,9.07,6.34,2,4,.71,7.89-3.46,9.43-6.83,2.51-12.76,1-18.17-3.94a.5.5,0,0,0-.71.71c5.14,6.15,18.05,13.14,24.08,4.73,2.39-3.35,3.2-8.09,1.22-11.82-2.21-4.18-7.6-5.27-11.86-6.06a.32.32,0,0,0-.17.61Z" transform="translate(0 0.13)"/><path class="c" d="M2509.15,258.23a59,59,0,0,1,12-1.11c3.57.13,4.58.12,6.62,3.42q3.14,2.16.85,4.18a9.66,9.66,0,0,1-2.55,2.81c-5.62,4.88-13.44,4.34-20.35,5.55a.79.79,0,0,0,0,1.52c8.47,1.44,25.51-.25,26.48-11.76.92-10.91-17.55-7.3-23.31-5.58a.5.5,0,0,0,.26,1Z" transform="translate(0 0.13)"/><path class="c" d="M2511.25,285.29c4.46-5.52,9.62-12.45,17.29-13.05a9.12,9.12,0,0,1,4,.25l2.06,5.88c.06,1.38-.75,3.68-1.08,5-.71,2.84-1.9,5.53-2.12,8.46a.73.73,0,0,0,1.23.51c3.76-4.55,9.87-20.52.64-22.53-10.23-2.24-18.19,7.3-22.51,15.09-.16.29.24.64.47.37Z" transform="translate(0 0.13)"/><path class="c" d="M2593,400.08c8.88-5.53,22.35-3.67,29.59,3.89,9.71,10.13,1.75,24.86-6.13,33.32-8.22,8.81-21.1,10.88-26.53,22.57-4,8.63-3.76,20.21,2.73,27.65.2.23.55-.06.41-.32-3.53-6.59-4.71-13.84-2.27-21.06,2.75-8.13,9.82-11,17.09-14.12,12.69-5.51,20.47-16.15,24-29.37,3-11.09-.83-21.87-11.17-27.36a28,28,0,0,0-29.51,1.8c-1.77,1.29-.19,4.21,1.76,3Z" transform="translate(0 0.13)"/><path class="c" d="M2608.68,448.09c-8.11,5.64-9.38,14.49-2.39,21.7,4.22,4.36,9.84,7.12,13.49,12.07,4,5.38,4.26,13-.94,17.72-1.39,1.25.07,4,1.89,3.26,9.61-3.88,10.69-15.55,5.58-23.54-2.94-4.6-7.44-7.68-11.82-10.77-2.95-2.07-6.54-4-8.31-7.33-2.37-4.43-.36-9.24,3-12.4.37-.34-.12-1-.54-.71Z" transform="translate(0 0.13)"/><path class="c" d="M2614.6,472.56c-.95,1.76-.85,3.3-.91,5.25-.16,5.08-2.16,8.59-6.16,11.81-5.13,4.13-11.46,6.74-14.69,12.79a.4.4,0,0,0,.62.48c5.39-5.32,13-8,17.88-13.84a16.56,16.56,0,0,0,3.58-6.84c.68-3-.73-6.2.63-9.09.3-.64-.61-1.2-1-.56Z" transform="translate(0 0.13)"/><path class="c" d="M2509.57,457.31c8.76,5.83,18.81,7.48,29.26,8.57a46.27,46.27,0,0,0,8.56.31,51.78,51.78,0,0,0,10.41-2.29A74,74,0,0,0,2569,460c7.56-3.59,13.77-9.68,18.44-16.66s7.88-14.85,10.49-22.85c1.52-4.67,2.87-9.59,2.13-14.45-3.63,9.89-12.14,17-20.58,23.27-3.65,2.7-7.66,5.42-12.19,5.56-2.45.08-4.85-.63-7.28-1a59,59,0,0,0-11.59-.38c-5.6.18-11.27.37-16.62,2-10.27,3.14-19.34,11.46-22.21,21.87" transform="translate(0 0.13)"/><path class="c" d="M2509.5,457.42c17.59,12,42.71,12.4,61.33,2.62,8.71-4.58,15.39-12.4,20.11-20.91,5.26-9.5,11-22.05,9.9-33.11a.8.8,0,0,0-1.56-.21c-3.89,9.77-11.93,16.71-20.23,22.76-5.88,4.29-10.63,5.87-17.93,4.64-5.15-.87-10.33-.67-15.53-.44-16.44.74-31.27,7.8-36.54,24.4-.21.65.84.94,1,.28,2.86-9.76,11-17.53,20.48-20.86,5.42-1.89,11.21-2.17,16.89-2.35,6.17-.19,11.8.85,17.87,1.35,8,.65,14.6-5.36,20.35-10.1,6.47-5.33,12-11.39,15.13-19.26l-1.56-.21c1,10.48-4.39,22.49-9.3,31.49-4.67,8.56-11.25,16.43-20,21-18.14,9.48-42.59,9.12-60.3-1.33a.13.13,0,0,0-.14.23Z" transform="translate(0 0.13)"/><path class="c" d="M2509.76,458.18a41.41,41.41,0,0,1,7-25.65,41.93,41.93,0,0,1,21.47-15.74c9.24-2.93,19.5-2.69,28.13-7.06,8.29-4.19,14-12.16,17.83-20.51-6.79-1.41-12.71-5.49-19.39-7.33-10.77-3-22.2.17-32.92,3.28a44,44,0,0,0-7.69,2.76,39.82,39.82,0,0,0-7.21,5c-5.2,4.31-10.32,9.07-13.08,15.19-3.4,7.54-2.82,16.19-2,24.4.95,9,1.86,18.77,7.82,25.63" transform="translate(0 0.13)"/><text class="e" transform="translate(51.72 268.04) scale(0.87 1)">S<tspan class="f" x="12.32" y="0"> </tspan><tspan x="16.71" y="0">W A</tspan><tspan class="g" x="58.44" y="0"> </tspan><tspan x="62.71" y="0">T C H E S</tspan></text><rect class="h" x="51.5" y="296.63" width="51" height="29"/><rect class="i" x="51.5" y="350.63" width="51" height="29"/><rect class="j" x="51.5" y="408.63" width="51" height="29"/><text class="k" transform="translate(119.99 373.06)">#92ff03</text><text class="k" transform="translate(119.99 319.06)">#f7f7f7</text><text class="k" transform="translate(119.99 432.06)">#92ff03</text></svg>